<svg id="login-img" xmlns="http://www.w3.org/2000/svg" width="236" height="360" viewBox="0 0 236 360">
  <rect id="Rectangle_234" data-name="Rectangle 234" width="236" height="360" fill="none"/>
  <path id="Path_258" data-name="Path 258" d="M1079.266,910.839l-15.192.965c-4.612-3.1-10.022-6.545-14.254-8.81.989-.12,2.055-.194,3.177-.229a53.281,53.281,0,0,1,9.318.59C1069.274,904.411,1076.154,906.833,1079.266,910.839Z" transform="translate(-953.962 -688.768)" fill="#fcc9a1"/>
  <path id="Path_259" data-name="Path 259" d="M843.232,1083.2c-13.847,1.215-16.431,1.364-20.238,2.5s-6.646,4.368-6.316,5.75,1.691,1.845,2.924,3.81c.736,1.183-1.063.962-.617,4.155.194,1.364,1.715,1.484,1.949,3.549s-.234,4.753,1.013,5.766a4.65,4.65,0,0,1,1.832,3.9c.077,1.832.04,4.785,2.533,6.274a16.611,16.611,0,0,0,8.3,2.3l-.266-6.508a4.017,4.017,0,0,0,2.393-2.945c.457-2.308-.367-2.626.577-4.463a5.437,5.437,0,0,0,.763-3.389l7.839.239C839.524,1098.831,839.83,1087.156,843.232,1083.2Z" transform="translate(-782.778 -821.248)" fill="#e7a184"/>
  <path id="Path_260" data-name="Path 260" d="M1282.366,1116.71c3.19,12.933,4.761,18.343,6.045,25.954s2.48,16.482,2.3,18.653-4.341,5.848-4.341,5.848l2.039,14.4-59.364,9.993-3.4-29.6c8.985,6.178,21.07,9.395,30.526,3.57,1.826-1.125,7.058-7.241,8.443-9.2C1274.822,1141.892,1278.57,1133,1282.366,1116.71Z" transform="translate(-1083.051 -845.85)" fill="#63cdf6" opacity="0.5"/>
  <path id="Path_168" data-name="Path 168" d="M798.325,804.18a10.046,10.046,0,0,1-1.556-.119,9.147,9.147,0,0,1-3.755-1.484,15.391,15.391,0,0,1-2.615-2.2q-.454.165-.936.315a18.714,18.714,0,0,1-7.209.956,9.716,9.716,0,0,1-4.942-1.772,8.342,8.342,0,0,1-1.6-1.54,8.745,8.745,0,0,1-1.108-1.824,9.87,9.87,0,0,1-.856-4.034,17.255,17.255,0,0,1,1.219-6.007,24.066,24.066,0,0,1,1.468-3.138,26.226,26.226,0,0,1,2-3.055,25.307,25.307,0,0,1,5.453-5.335,21.7,21.7,0,0,1,7.2-3.4.4.4,0,1,1,.2.772,20.908,20.908,0,0,0-6.936,3.275,24.509,24.509,0,0,0-5.281,5.167c-2.831,3.739-4.521,8.119-4.521,11.718a9.067,9.067,0,0,0,.785,3.705,7.641,7.641,0,0,0,2.451,3.051,8.93,8.93,0,0,0,4.544,1.62,17.93,17.93,0,0,0,6.9-.923q.313-.1.614-.2a9.582,9.582,0,0,1-.795-1.152,6.22,6.22,0,0,1-.912-3.971,5.008,5.008,0,0,1,1.28-2.7,5.905,5.905,0,0,1,1.218-1.009,7.193,7.193,0,0,1,1.541-.722,4.008,4.008,0,0,1,2.045-.164,3.445,3.445,0,0,1,1.653.815,3.569,3.569,0,0,1,1.025,1.623,4.17,4.17,0,0,1,.066,2.095,6.4,6.4,0,0,1-2.139,3.356,12.92,12.92,0,0,1-3.616,2.165,15.04,15.04,0,0,0,2.257,1.856,8.356,8.356,0,0,0,3.43,1.356,10.28,10.28,0,0,0,3.719-.139,18.3,18.3,0,0,0,7.307-3.644,25.53,25.53,0,0,0,3.183-2.977,24.087,24.087,0,0,0,2.56-3.38.4.4,0,1,1,.677.422,24.886,24.886,0,0,1-2.644,3.492,26.326,26.326,0,0,1-3.283,3.07,19.087,19.087,0,0,1-7.635,3.8A11.869,11.869,0,0,1,798.325,804.18Zm-4.8-13.439a3.46,3.46,0,0,0-1.1.187A5.738,5.738,0,0,0,790,792.441a4.328,4.328,0,0,0-.717,1.059,4.122,4.122,0,0,0-.362,1.213A4.651,4.651,0,0,0,789,796.37a6.364,6.364,0,0,0,.729,1.8,8.98,8.98,0,0,0,.9,1.261,12.406,12.406,0,0,0,3.662-2.136,5.615,5.615,0,0,0,1.887-2.927,3.029,3.029,0,0,0-.844-2.954A2.672,2.672,0,0,0,793.523,790.741Z" transform="translate(-751.281 -592.43)" fill="#2c2f53"/>
  <path id="Path_261" data-name="Path 261" d="M982.526,681.468h0q-.574.266-1.2.508a64.416,64.416,0,0,0-3.115,13.175,42.544,42.544,0,0,0-.266,8.132s-11.487-2.658-21.307,0L927.95,682.866l24.967-56.426c3.44,2.111,14.586,5.878,17.42,8.212s6.436,4.716,6.6,7.6a89.6,89.6,0,0,0,7.1,7.489c3.884,3.607,5.641,9.155,5.761,15.2C989.9,670.8,993.911,676.436,982.526,681.468Z" transform="translate(-864.489 -485.911)" fill="#fcc9a1"/>
  <path id="Path_262" data-name="Path 262" d="M1089.4,835.36a64.428,64.428,0,0,0-3.11,13.172c-6.763-1.529-10.011-8.148-11.12-11.011a56.233,56.233,0,0,0,13.736-2.127h0Z" transform="translate(-972.573 -639.292)" fill="#2c2f53"/>
  <path id="Path_263" data-name="Path 263" d="M963.829,902.067s-1.079-.077-3.623,1.542a106.85,106.85,0,0,1-9.714,4.705c-5.782-5.707-20.2-12.414-21.28-11.1s.154,2.7,3.932,4.857,9.87,8.27,9.87,8.27c-4.937,1.409-8.56,2.371-8.56,2.371-4.086-3.161-13.124-8.714-18.967-12.8-8.823-6.17-16.846-8.581-17.125-10.649-.986-7.3-.133-15.684,2.7-16.8,3.427-1.358,9.5-7.023,16.646-10.843s15.153-.566,18.741.93,7.544,1.063,8.044,1.56c1.406,1.406,4.681,5.583,6.34,7.736a53.256,53.256,0,0,0-9.317-.59l-1.2-1.1a30.833,30.833,0,0,0-4.628,0c.8.372,1.7.821,2.658,1.329,4.232,2.265,9.642,5.7,14.254,8.81s8.427,5.885,9.466,6.821c2.315,2.082.386,5.551-1.7,4.471s-14.57-7.4-17.577-8.788-3.086.617-1.465,1.861C944.6,887.149,963.829,902.067,963.829,902.067Z" transform="translate(-842.478 -657.253)" fill="#e7a184"/>
  <path id="Path_264" data-name="Path 264" d="M842.029,586.51c-6.542,3.514-9.326,5.848-9.1,10.253,0,0-5.3-1.808-12.181,2.1s-13.316,8.757-14.647,16.99c-1.9,11.766,2.621,16.3.391,21.873-1.366,3.419-5.907,7.568-11.473,9.961s-7.422,6.2-7.47,9.57.585,13.026,11.67,15.283,25.584-.439,35.1-5.957,12.646-8.741,12.547-14.257c0,0-10.546,1.861-12.694-4.737,0,0,5.811-5.957,7.031-11.279,0,0,3.722-.409,4.394-7.127a29.629,29.629,0,0,0-.343-8.592s9.764-10.5,4.575-23.463Z" transform="translate(-761.406 -456.595)" fill="#0d1536"/>
  <path id="Path_173" data-name="Path 173" d="M982.951,611.528a.4.4,0,0,1-.4-.388,6.805,6.805,0,0,1,.835-3.538,7.59,7.59,0,0,1,1.972-2.27,9.652,9.652,0,0,1,2.9-1.565.4.4,0,1,1,.228.764,9.015,9.015,0,0,0-2.653,1.444A6.778,6.778,0,0,0,984.078,608a6.02,6.02,0,0,0-.728,3.116.4.4,0,0,1-.388.41Z" transform="translate(-904.574 -469.252)" fill="#505c7b"/>
  <path id="Path_174" data-name="Path 174" d="M987.588,703.629a.4.4,0,0,1-.062-.793,3.814,3.814,0,0,0,2.255-1.232,7.1,7.1,0,0,0,1.438-2.663,18.144,18.144,0,0,0,.726-5.368,33.2,33.2,0,0,0-.568-6.094c-.768-4.152-2.184-7.653-3.7-9.136a.4.4,0,0,1,.558-.569,8.078,8.078,0,0,1,1.247,1.652,16.5,16.5,0,0,1,1.083,2.241,30.348,30.348,0,0,1,1.591,5.668,34.011,34.011,0,0,1,.581,6.243,18.936,18.936,0,0,1-.764,5.607,7.875,7.875,0,0,1-1.611,2.959,4.593,4.593,0,0,1-2.718,1.48A.405.405,0,0,1,987.588,703.629Z" transform="translate(-907.981 -523.514)" fill="#505c7b"/>
  <path id="Path_175" data-name="Path 175" d="M976.937,719.537a.405.405,0,0,1-.067-.006.4.4,0,0,1-.327-.459,26.555,26.555,0,0,0,.1-9.958,18.241,18.241,0,0,0-1.456-4.263,23.3,23.3,0,0,0-2.6-4.139.4.4,0,0,1,.631-.488,24.1,24.1,0,0,1,2.692,4.28,19.021,19.021,0,0,1,1.518,4.447,27.313,27.313,0,0,1-.094,10.253A.4.4,0,0,1,976.937,719.537Z" transform="translate(-897.196 -539.967)" fill="#505c7b"/>
  <path id="Path_176" data-name="Path 176" d="M886.573,704.764a17.275,17.275,0,0,1-1.868-.1.4.4,0,0,1,.086-.793,13.209,13.209,0,0,0,6.14-.647,9.73,9.73,0,0,0,4.208-3.062,11.635,11.635,0,0,0,1.83-3.322,15.716,15.716,0,0,0,.856-4.066,21.06,21.06,0,0,0-.152-4.6,26.418,26.418,0,0,0-1.188-4.914,14.979,14.979,0,0,1-.739-3.381,14.807,14.807,0,0,1,.038-3.242,14.659,14.659,0,0,1,1.887-5.619,11.788,11.788,0,0,1,2.642-3.145,7.111,7.111,0,0,1,3.173-1.553.4.4,0,0,1,.14.785c-1.908.34-3.877,1.954-5.267,4.317a13.856,13.856,0,0,0-1.783,5.311,14,14,0,0,0-.036,3.067,14.186,14.186,0,0,0,.7,3.2,27.207,27.207,0,0,1,1.224,5.063,21.864,21.864,0,0,1,.157,4.774,16.513,16.513,0,0,1-.9,4.273,12.434,12.434,0,0,1-1.957,3.549,10.517,10.517,0,0,1-4.549,3.31A13.034,13.034,0,0,1,886.573,704.764Z" transform="translate(-832.48 -515.181)" fill="#505c7b"/>
  <path id="Path_177" data-name="Path 177" d="M891.176,789.453a18.547,18.547,0,0,1-4.882-.65.4.4,0,0,1,.209-.77,18.141,18.141,0,0,0,8.008.322,20.917,20.917,0,0,0,3.861-1.088,23.2,23.2,0,0,0,3.635-1.792,25.268,25.268,0,0,0,7.069-6.416,23.578,23.578,0,0,0,2.448-4.053,20.785,20.785,0,0,0,1.512-4.4.4.4,0,0,1,.779.171,21.578,21.578,0,0,1-1.57,4.564,24.367,24.367,0,0,1-2.531,4.191,26.02,26.02,0,0,1-3.329,3.657,25.738,25.738,0,0,1-3.966,2.963,24,24,0,0,1-3.76,1.854,21.738,21.738,0,0,1-4.009,1.129A19.765,19.765,0,0,1,891.176,789.453Z" transform="translate(-833.691 -591.527)" fill="#505c7b"/>
  <path id="Path_265" data-name="Path 265" d="M1409.186,824.95l11.014,7.178s3.376-12.882,5.248-18.609,3.794-12.468,4.623-16.155-.468-5.819-1.454-9.767-6.819-23.274-7.643-25.975-3.578.675-3.421,3.065c0,0-2.337.728-1.922,3.9s3.169,18.608,3.272,20.156-.936.936-1.3,2.658c0,0-1.715-7.22-4.312-7.584s-2.483,1.039-2.254,2.026,2.151,8.259,1.683,11.064-4.987,10.96-4.883,14.6,2.858,6.856,2.858,6.856Z" transform="translate(-1216.803 -584.424)" fill="#fcc9a1"/>
  <path id="Path_266" data-name="Path 266" d="M912.716,411.795c-2.658.837-3.177,1.1-5.3-1.191a16.708,16.708,0,0,1-4.543-8.911c-.572-3.748,1.457-18.795,8.206-25.765s13.1-9.264,23.869-8.823,27.309,14.118,28.1,22.234S912.716,411.795,912.716,411.795Z" transform="translate(-846.014 -295.477)" fill="#2c2f53"/>
  <path id="Path_180" data-name="Path 180" d="M953.022,393.118a.4.4,0,0,1-.089-.01,3.937,3.937,0,0,1-2.3-1.621,8.846,8.846,0,0,1-1.329-3.012,17.407,17.407,0,0,1-.511-3.845,21.835,21.835,0,0,1,.265-4.045,15.935,15.935,0,0,1,1.007-3.647,7.373,7.373,0,0,1,1.765-2.655.4.4,0,1,1,.532.594,6.6,6.6,0,0,0-1.563,2.372,15.369,15.369,0,0,0-.954,3.464,21.009,21.009,0,0,0-.255,3.9,16.849,16.849,0,0,0,.486,3.668,8.069,8.069,0,0,0,1.2,2.741,3.167,3.167,0,0,0,1.836,1.314.4.4,0,0,1-.088.788Z" transform="translate(-879.783 -300.71)" fill="#505c7b"/>
  <path id="Path_181" data-name="Path 181" d="M1022.827,395.238a.4.4,0,0,1-.23-.725,6.622,6.622,0,0,0,2.285-2.659,5.007,5.007,0,0,0,.435-2.692,3.733,3.733,0,0,0-.544-1.557,3.328,3.328,0,0,1-3.051,1.406,1.508,1.508,0,0,1-1.3-.954,1.23,1.23,0,0,1,.5-1.305,3.006,3.006,0,0,1,3.088-.788,2.666,2.666,0,0,1,.63.344,2.779,2.779,0,0,0,.12-1.964,6.174,6.174,0,0,0-2.158-2.839,20.516,20.516,0,0,0-4.86-2.8.4.4,0,1,1,.315-.733,21.3,21.3,0,0,1,5.051,2.916,6.931,6.931,0,0,1,2.418,3.229,3.619,3.619,0,0,1,.115,1.612,3.739,3.739,0,0,1-.4,1.163,4.372,4.372,0,0,1,.865,2.17,5.8,5.8,0,0,1-.5,3.121,6.8,6.8,0,0,1-.992,1.562,8.207,8.207,0,0,1-1.56,1.419A.4.4,0,0,1,1022.827,395.238Zm.3-8.637a1.865,1.865,0,0,0-.439.054,2.991,2.991,0,0,0-1.244.7c-.1.084-.311.3-.256.483.042.145.264.328.653.388a2.588,2.588,0,0,0,2.388-1.223,1.892,1.892,0,0,0-.5-.29A1.676,1.676,0,0,0,1023.13,386.6Z" transform="translate(-930.234 -303.47)" fill="#505c7b"/>
  <path id="Path_182" data-name="Path 182" d="M1051.249,406.122a.4.4,0,0,1-.188-.751,19.138,19.138,0,0,0,6.046-4.993,13.688,13.688,0,0,0,1.792-2.967,9.389,9.389,0,0,0,.778-2.99,6.588,6.588,0,0,0-.526-3.231,7.1,7.1,0,0,0-2.27-2.763.4.4,0,0,1,.481-.636,7.885,7.885,0,0,1,2.518,3.075,7.38,7.38,0,0,1,.592,3.618,10.181,10.181,0,0,1-.841,3.245,14.485,14.485,0,0,1-1.9,3.141,19.941,19.941,0,0,1-6.3,5.205A.4.4,0,0,1,1051.249,406.122Z" transform="translate(-954.718 -310.643)" fill="#505c7b"/>
  <path id="Path_183" data-name="Path 183" d="M922.638,443.579a6.46,6.46,0,0,1-1.491-.167,5.661,5.661,0,0,1-2.962-1.788,8.94,8.94,0,0,1-1.794-3.366,16.283,16.283,0,0,1-.658-4.089,20.943,20.943,0,0,1,.238-4.1,14.489,14.489,0,0,1,.943-3.424.4.4,0,1,1,.731.318,17.5,17.5,0,0,0-1.116,7.177c.124,3,.924,5.471,2.251,6.957,1.5,1.683,3.647,2.112,6.376,1.275a.4.4,0,0,1,.234.763A9.431,9.431,0,0,1,922.638,443.579Z" transform="translate(-855.507 -339.048)" fill="#505c7b"/>
  <path id="Path_267" data-name="Path 267" d="M912.667,287.727c-5.2.239-14.241,2.454-17.753-7.361s4.089-19.14,7.794-20.2c0,0,1.877-9.862,8.132-9.862,4.716,0,4.617,9.429,4.617,9.429s5.484-6.542,8.8-5.147c3.214,1.35,0,9.142,0,9.142,2.866.829,5.354,11.505-10.782,22.064C913.116,286.015,913,287.437,912.667,287.727Z" transform="translate(-839.572 -209.761)" fill="#2c2f53"/>
  <path id="Path_185" data-name="Path 185" d="M924.938,328.578a4.342,4.342,0,0,1-1.057-.124,3.226,3.226,0,0,1-1.648-.972,3.6,3.6,0,0,1-.86-1.937,4.891,4.891,0,0,1,.226-2.207,5.066,5.066,0,0,1,1.309-2.065,4.638,4.638,0,0,1,2.352-1.2,6.963,6.963,0,0,1,.775-.1,10.445,10.445,0,0,1,.676-2.164,8.881,8.881,0,0,1,2-2.922,5.914,5.914,0,0,1,1.409-.993,4.766,4.766,0,0,1,1.664-.481.4.4,0,0,1,.076.794,4.4,4.4,0,0,0-2.6,1.262,8.08,8.08,0,0,0-1.811,2.659,9.66,9.66,0,0,0-.594,1.842,4.331,4.331,0,0,1,.943.171,3.3,3.3,0,0,1,1.608,1.04,3.133,3.133,0,0,1,.675,1.42,2.583,2.583,0,0,1-.093,1.38,1.393,1.393,0,0,1-1.087.944,2.313,2.313,0,0,1-2.325-.852,4.333,4.333,0,0,1-.689-2.818q.01-.232.034-.47-.246.026-.505.075a3.853,3.853,0,0,0-1.954.994,4.267,4.267,0,0,0-1.1,1.74,4.093,4.093,0,0,0-.192,1.845,2.8,2.8,0,0,0,.663,1.511,3.25,3.25,0,0,0,3.286.692.4.4,0,0,1,.174.778A6.2,6.2,0,0,1,924.938,328.578Zm1.78-7.818a4.064,4.064,0,0,0,.485,2.828,1.405,1.405,0,0,0,.623.473,1.9,1.9,0,0,0,.952.074.622.622,0,0,0,.458-.439,1.78,1.78,0,0,0,.055-.947,2.333,2.333,0,0,0-.5-1.058,2.517,2.517,0,0,0-1.228-.788A3.586,3.586,0,0,0,926.718,320.76Z" transform="translate(-859.63 -256.095)" fill="#505c7b"/>
  <path id="Path_186" data-name="Path 186" d="M992.754,299.29a.4.4,0,0,1,.352.587,10.218,10.218,0,0,1-2.285,2.862,6.555,6.555,0,0,1-1.242.863,2.6,2.6,0,0,1-1.163.338,1.056,1.056,0,0,1-.993-.575,1.339,1.339,0,0,1,.147-1.356,5.677,5.677,0,0,1,2.138-1.831,6.838,6.838,0,0,1,3.04-.886Zm-4.339,3.852a3.614,3.614,0,0,0,1.885-1.008,9.368,9.368,0,0,0,1.705-1.964,6.871,6.871,0,0,0-1.919.707,4.964,4.964,0,0,0-1.834,1.54.667.667,0,0,0-.121.582C988.17,303.074,988.23,303.142,988.415,303.142Z" transform="translate(-908.063 -245.728)" fill="#505c7b"/>
  <path id="Path_187" data-name="Path 187" d="M924.728,285.89h.027a4.555,4.555,0,0,1,2.516.842,2.767,2.767,0,0,1,1.06,1.683,2.689,2.689,0,0,1-.19,1.61,2.326,2.326,0,0,1-1.1,1.142,2.094,2.094,0,0,1-.907.218,1.857,1.857,0,0,1-1.5-.8,3.546,3.546,0,0,1-.616-1.843,7.044,7.044,0,0,1,.327-2.568A.4.4,0,0,1,924.728,285.89Zm1.411,4.7a1.305,1.305,0,0,0,.562-.14,1.528,1.528,0,0,0,.715-.754,1.885,1.885,0,0,0,.132-1.129,1.981,1.981,0,0,0-.763-1.2,3.552,3.552,0,0,0-1.763-.647,6.083,6.083,0,0,0-.207,1.963,2.764,2.764,0,0,0,.462,1.43A1.08,1.08,0,0,0,926.139,290.588Z" transform="translate(-861.592 -235.89)" fill="#505c7b"/>
  <path id="Path_268" data-name="Path 268" d="M1000.612,459.423a132.488,132.488,0,0,1-8.222,19.441,137.493,137.493,0,0,1-8.945,15.054,19.463,19.463,0,0,0-4.979-2.462s-1.55,1.656-3.235,3.251a17,17,0,0,1-3.549,2.8c-1.534.643-3.116.05-5.144-.84s-14.443-6.431-18.646-8.259a26.163,26.163,0,0,1-10.232-9c-1.582-2.712-6.319-3.512-7.914-4.8s-9.395-13.882-10.979-18.343c-1.632-4.6,3.065-6.478,5.192-6.973s3.413-4.7,5.293-7.765,3.116-3.413,5.391-2.868,3.759-3.312,6.912-3.56,5.439,4.054,7.962,4.152,5.49-2.72,7.975-.3,4.7,5.984,6.975,5.439,2.557-3.174,2.77-6.282c.378-5.583,13.938-2.658,12.2,7.345C986.456,451.5,995.726,457.469,1000.612,459.423Z" transform="translate(-857.499 -345.429)" fill="#e7a184"/>
  <path id="Path_269" data-name="Path 269" d="M1155.508,559.195c-1.831,3.254-3.908,6.646-6.239,10.033a19.463,19.463,0,0,0-4.979-2.462c4.091-6.6,4.578-19.363,2.61-29.1C1146.9,537.67,1154.554,548.165,1155.508,559.195Z" transform="translate(-1023.319 -420.739)" fill="#2c2f53"/>
  <path id="Path_190" data-name="Path 190" d="M1069.9,591.049a.4.4,0,0,1-.192-.749c1.972-1.081,3.391-3.415,4.234-5.184a23.809,23.809,0,0,0,1.187-3.02,15.312,15.312,0,0,0,.534-2.133,5.958,5.958,0,0,0-.235-2.486.4.4,0,0,1,.761-.239,6.753,6.753,0,0,1,.266,2.824l0,.013a21.864,21.864,0,0,1-1.792,5.385,17.213,17.213,0,0,1-1.914,3.168A8.846,8.846,0,0,1,1070.09,591,.4.4,0,0,1,1069.9,591.049Z" transform="translate(-968.41 -449.584)" fill="#2c2f53"/>
  <path id="Path_191" data-name="Path 191" d="M1091.109,611.945a.4.4,0,0,1-.249-.711,6.385,6.385,0,0,0,1.516-1.735,3.984,3.984,0,0,0,.584-1.667.4.4,0,1,1,.8.053,4.776,4.776,0,0,1-.692,2.019,7.19,7.19,0,0,1-1.707,1.954A.4.4,0,0,1,1091.109,611.945Z" transform="translate(-983.982 -471.976)" fill="#2c2f53"/>
  <path id="Path_192" data-name="Path 192" d="M1099.985,469.577a.4.4,0,0,1-.3-.134,41.672,41.672,0,0,0-5.966-5.721,26.34,26.34,0,0,0-3.295-2.151,26.932,26.932,0,0,0-3.774-1.708.4.4,0,1,1,.274-.749,27.735,27.735,0,0,1,3.884,1.758,27.163,27.163,0,0,1,3.394,2.215,42.443,42.443,0,0,1,6.08,5.827.4.4,0,0,1-.3.663Z" transform="translate(-980.81 -363.048)" fill="#2c2f53"/>
  <path id="Path_193" data-name="Path 193" d="M1143.188,552.224a.4.4,0,0,1-.338-.609,21.3,21.3,0,0,0,2.363-5.852,41.735,41.735,0,0,0,1.155-7.341,58.524,58.524,0,0,0,.03-7.944,56.8,56.8,0,0,0-.99-7.67v0a40.158,40.158,0,0,0-1.316-4.962.4.4,0,0,1,.756-.253,40.986,40.986,0,0,1,1.342,5.06,57.569,57.569,0,0,1,1,7.777,59.291,59.291,0,0,1-.031,8.053,42.542,42.542,0,0,1-1.178,7.482,22.094,22.094,0,0,1-2.458,6.072A.4.4,0,0,1,1143.188,552.224Z" transform="translate(-1022.217 -405.798)" fill="#2c2f53"/>
  <path id="Path_270" data-name="Path 270" d="M1001.545,503.132a15.349,15.349,0,0,1,.292-5.317c.274-.989,4.647-6.912,5.641-7.494s4.384-.223,4.384-.223S1005.022,496.584,1001.545,503.132Z" transform="translate(-918.471 -385.732)" fill="#2c2f53"/>
  <path id="Path_271" data-name="Path 271" d="M959,566.359c-.893-2.02-.8-3.132-.572-3.655a10.971,10.971,0,0,1,3.623-2.6,19.212,19.212,0,0,1,3.722.292A45.443,45.443,0,0,0,959,566.359Z" transform="translate(-886.75 -437.178)" fill="#2c2f53"/>
  <path id="Path_196" data-name="Path 196" d="M1037.049,598.084a.4.4,0,0,1-.126-.777c3.068-1.023,3.589-1.562,3.716-3.844.143-2.578.6-4.191,1.368-4.8a.4.4,0,0,1,.495.625c-.262.207-.89,1.033-1.067,4.215a4.212,4.212,0,0,1-.988,2.916,8.1,8.1,0,0,1-3.271,1.641A.4.4,0,0,1,1037.049,598.084Z" transform="translate(-944.293 -458.115)" fill="#2c2f53"/>
  <path id="Path_272" data-name="Path 272" d="M1053.4,591.576c1.595-.747,2.549-3.326,1.483-3.7C1053.948,587.557,1053.142,589.088,1053.4,591.576Z" transform="translate(-956.556 -457.57)" fill="#2c2f53"/>
  <path id="Path_198" data-name="Path 198" d="M1031.785,529.907a.665.665,0,0,1-.36-1.224,6.926,6.926,0,0,0,1.786-1.7,10.282,10.282,0,0,0,1.149-1.991,11.852,11.852,0,0,0,.773-2.359.665.665,0,0,1,1.307.24,12.963,12.963,0,0,1-.851,2.625,11.67,11.67,0,0,1-1.3,2.264,8.26,8.26,0,0,1-2.145,2.04A.662.662,0,0,1,1031.785,529.907Z" transform="translate(-940.233 -409.299)" fill="#2c2f53"/>
  <path id="Path_199" data-name="Path 199" d="M985.545,587.635a.665.665,0,0,1-.309-1.253,7.355,7.355,0,0,0,3.017-2.941.665.665,0,0,1,1.161.647,8.682,8.682,0,0,1-3.56,3.471A.663.663,0,0,1,985.545,587.635Z" transform="translate(-906.285 -454.092)" fill="#2c2f53"/>
  <path id="Path_200" data-name="Path 200" d="M997.888,577.188a.4.4,0,0,1-.351-.209,111.226,111.226,0,0,0-6.483-10.637,33.2,33.2,0,0,0-3.269-4.043,5.623,5.623,0,0,0-2.49-1.695.4.4,0,0,1,.106-.79,5.788,5.788,0,0,1,2.951,1.925,33.939,33.939,0,0,1,3.352,4.143,112.082,112.082,0,0,1,6.533,10.718.4.4,0,0,1-.35.588Z" transform="translate(-906.337 -436.993)" fill="#2c2f53"/>
  <path id="Path_273" data-name="Path 273" d="M1046.686,586.768c3.068-2.044-3.405-28.777-5.646-35.143-4.144-11.774-18.813-17.827-26.775-21.445a140.508,140.508,0,0,1-22.1-12.76c-4.211-3.222-6.016-2.1-6.494-.8-.061.165-.122.327-.181.489-6.526,17.545-11.949,26.249-17.3,34.1l-.561.819a14.748,14.748,0,0,0-2.238-1.109c-1.329,1.39-4.766,4.857-6.236,5.474-1.534.643-3.116.051-5.144-.84-.845-.37-3.5-1.55-6.606-2.924-.234.532-.481,1.167-.712,1.861.736.6,7.135,2.044,8.39,6.462,4.344,6.744,12.994,11.487,12.723,20.18-.093,2.924,1.685,8.679.63,11.2-2.127,5.1-7.178,3.456-9.219,9.349a60.907,60.907,0,0,0-2.884,20.076c10.95,1.2,18.842,12.949,18.842,12.949h0c-1.664,2.658-3.092,4.75-3.557,5.5a6.865,6.865,0,0,0-.861,3.174c-1.063,2.153-.053,6.08-.053,6.08s-3.389-1.56-5.489-1.292-3.722,1.454-6.835,3.283-9.74,3.767-15.82,5.543a141.394,141.394,0,0,1-21.469,3.82c-5.218.484-6.135,2.153-7.8,3.456s-3.227.8-7.8,1.292-4.734,9.631-3.456,15.227a9.278,9.278,0,0,0,5.614,6.96c4.62.1,7.975.8,10.851,2.624,5.6,3.546,9.528,4.519,19.693,4.163,12.258-.412,35.431-5.157,52.263-8.281a22.69,22.69,0,0,0,13.249-7.047c1.608,2.127,5.428,6.287,9.684,4.75.816-.3,6.093-11.136,12.17-21.533,4.062-6.941,4.115-10.421,8.108-11.165,3.639-3.078,6.646-6.149,7.124-13.481-5.909-8.3,1.125-12.736,2.2-19.5.617-3.889-2.727-12.287-2.052-12.494,1.935-.625,4.022,8.06,4.121,8.366.7,2.18,4.059-4.931,4.059-4.931C1049.387,608.923,1044.974,587.908,1046.686,586.768Z" transform="translate(-844.952 -404.332)" fill="#63cdf6" opacity="0.5"/>
  <path id="Path_202" data-name="Path 202" d="M1099.569,727.123a.4.4,0,0,1-.271-.691c.609-.566,1.371-1.251,2.2-1.982a.4.4,0,0,1,.527.6c-.825.727-1.581,1.407-2.186,1.968A.4.4,0,0,1,1099.569,727.123Z" transform="translate(-990.193 -557.792)" fill="#2c2f53"/>
  <path id="Path_203" data-name="Path 203" d="M1082.661,677.278a.4.4,0,0,1-.262-.7c1.01-.878,2.168-1.856,2.5-2.083a2.107,2.107,0,0,0,.1-1.1,4.275,4.275,0,0,0-.171-1.124,15.81,15.81,0,0,0-1.65-.761c-1.482-.633-3.5-1.418-5.41-2.1a12.858,12.858,0,0,1-3.849-1.911,6.153,6.153,0,0,1-1.778-2.584,2.189,2.189,0,0,1-.179-.982,2.312,2.312,0,0,1,.268-.941,4.621,4.621,0,0,1,1.536-1.591l.005,0a11.73,11.73,0,0,1,2.309-1.189.4.4,0,1,1,.284.745,10.93,10.93,0,0,0-2.149,1.106,3.855,3.855,0,0,0-1.278,1.3,1.382,1.382,0,0,0-.062,1.244v0a5.366,5.366,0,0,0,1.549,2.277,12.2,12.2,0,0,0,3.612,1.777c1.919.689,3.958,1.481,5.453,2.119a7.271,7.271,0,0,1,1.931.955,1.3,1.3,0,0,1,.267.688,7.187,7.187,0,0,1,.107.933c.053,1-.083,1.559-.443,1.8-.207.138-1.109.879-2.432,2.029A.4.4,0,0,1,1082.661,677.278Z" transform="translate(-970.218 -510.681)" fill="#2c2f53"/>
  <path id="Path_204" data-name="Path 204" d="M1014.419,691.978a.4.4,0,0,1-.4-.456,16.023,16.023,0,0,1,1.154-4.033,17.038,17.038,0,0,1,2.074-3.549,15.963,15.963,0,0,1,2.762-2.84,12.891,12.891,0,0,1,3.225-1.9.4.4,0,0,1,.3.741,12.092,12.092,0,0,0-3.025,1.785,15.173,15.173,0,0,0-2.623,2.7,16.25,16.25,0,0,0-1.977,3.382,15.228,15.228,0,0,0-1.1,3.832A.4.4,0,0,1,1014.419,691.978Z" transform="translate(-927.679 -524.623)" fill="#2c2f53"/>
  <path id="Path_205" data-name="Path 205" d="M1300.289,613.556a.4.4,0,0,1-.3-.666,34.118,34.118,0,0,1,5.787-4.853,78.754,78.754,0,0,1,7.812-4.72,81.3,81.3,0,0,1,8.161-3.795,35.222,35.222,0,0,1,6.845-2.058.4.4,0,1,1,.127.787,34.465,34.465,0,0,0-6.68,2.013,80.427,80.427,0,0,0-8.079,3.757,77.9,77.9,0,0,0-7.732,4.67,33.362,33.362,0,0,0-5.65,4.732A.4.4,0,0,1,1300.289,613.556Z" transform="translate(-1137.555 -464.634)" fill="#54c3e5"/>
  <path id="Path_206" data-name="Path 206" d="M1155.808,660.384a.4.4,0,0,1-.278-.113A14.774,14.774,0,0,0,1154,659.02a9.563,9.563,0,0,0-3.331-1.636,5.9,5.9,0,0,1-2.005-.815,3.037,3.037,0,0,1-.895-4.412.4.4,0,0,1,.688.4,3.21,3.21,0,0,0-.451,1.256,1.976,1.976,0,0,0,.147,1.019,2.528,2.528,0,0,0,.953,1.072,5.1,5.1,0,0,0,1.735.7,10.22,10.22,0,0,1,3.634,1.774,15.232,15.232,0,0,1,1.609,1.32.4.4,0,0,1-.278.684Z" transform="translate(-1025.453 -504.646)" fill="#54c3e5"/>
  <path id="Path_207" data-name="Path 207" d="M948.248,1100.491a.4.4,0,0,1-.373-.258,33.121,33.121,0,0,1-1.217-4.49c-.413-1.959-.759-4.086-1-6.151a49.276,49.276,0,0,1-.373-6.312,15.842,15.842,0,0,1,.7-5,.4.4,0,1,1,.749.273,15.1,15.1,0,0,0-.65,4.735,48.474,48.474,0,0,0,.367,6.208,52.506,52.506,0,0,0,2.171,10.452.4.4,0,0,1-.373.54Z" transform="translate(-877.214 -817.445)" fill="#54c3e5"/>
  <path id="Path_208" data-name="Path 208" d="M908.469,1086.68a.4.4,0,0,1-.21-.738,8.015,8.015,0,0,1,2.422-.9,20.908,20.908,0,0,1,2.937-.416,31.348,31.348,0,0,1,4.992.011.4.4,0,0,1-.08.793,30.451,30.451,0,0,0-4.85-.009,12,12,0,0,0-5,1.2A.4.4,0,0,1,908.469,1086.68Z" transform="translate(-849.894 -822.229)" fill="#54c3e5"/>
  <path id="Path_209" data-name="Path 209" d="M899.229,1093.781a.4.4,0,0,1-.188-.751c1.07-.57,4.256-1.137,6.88-1.478,1.521-.2,2.981-.339,4.221-.409a13.64,13.64,0,0,1,2.93.048.4.4,0,1,1-.152.783,31.321,31.321,0,0,0-6.9.37,28.538,28.538,0,0,0-6.608,1.391A.4.4,0,0,1,899.229,1093.781Z" transform="translate(-843.11 -827.044)" fill="#54c3e5"/>
  <path id="Path_210" data-name="Path 210" d="M900.318,1103.458a.4.4,0,0,1-.143-.771,34.108,34.108,0,0,1,7.435-1.48c2.54-.3,4.672-.434,4.693-.436a.4.4,0,1,1,.05.8c-.021,0-2.135.135-4.654.432a35.758,35.758,0,0,0-7.239,1.432A.4.4,0,0,1,900.318,1103.458Z" transform="translate(-843.91 -834.147)" fill="#54c3e5"/>
  <path id="Path_211" data-name="Path 211" d="M900.461,1112.072l-.259,0a.4.4,0,0,1,.007-.8h.007a59.74,59.74,0,0,0,7.436-.621,54.358,54.358,0,0,0,5.943-1,.4.4,0,0,1,.243.76A81.834,81.834,0,0,1,900.461,1112.072Z" transform="translate(-843.83 -840.651)" fill="#54c3e5"/>
  <path id="Path_212" data-name="Path 212" d="M906.349,1123.356a.4.4,0,0,1-.015-.8c1.078-.041,3.047-.165,5.047-.376a21.714,21.714,0,0,0,4.343-.745.4.4,0,0,1,.29.743,21.491,21.491,0,0,1-4.549.8c-2.02.213-4.01.338-5.1.38Z" transform="translate(-848.338 -849.3)" fill="#54c3e5"/>
  <path id="Path_213" data-name="Path 213" d="M903.418,1132.338a7.793,7.793,0,0,1-.961-.048.4.4,0,1,1,.1-.791,37.725,37.725,0,0,0,6.9-.472c2.681-.332,5.087-.709,5.111-.713a.4.4,0,1,1,.124.788A107.648,107.648,0,0,1,903.418,1132.338Z" transform="translate(-845.518 -855.834)" fill="#54c3e5"/>
  <path id="Path_214" data-name="Path 214" d="M909.156,1147.009c-.48,0-.949-.01-1.4-.032a.4.4,0,1,1,.04-.8,53.266,53.266,0,0,0,7.415-.333c2.261-.235,3.982-.5,4-.5a.4.4,0,1,1,.122.788c-.017,0-1.758.272-4.039.508C913.578,1146.819,911.257,1147.009,909.156,1147.009Z" transform="translate(-849.387 -866.869)" fill="#54c3e5"/>
  <path id="Path_215" data-name="Path 215" d="M917.03,1155.751q-.207,0-.394-.006a.4.4,0,0,1,.013-.8h.014c3.069.1,9.571-1.207,9.637-1.22a.4.4,0,0,1,.159.782c-.016,0-1.676.339-3.7.657A39.961,39.961,0,0,1,917.03,1155.751Z" transform="translate(-855.9 -873.021)" fill="#54c3e5"/>
  <path id="Path_216" data-name="Path 216" d="M876.945,1267.116a.4.4,0,0,1-.267-.1,11.339,11.339,0,0,1-3.865-9.162,17.345,17.345,0,0,1,.737-4.309,25.565,25.565,0,0,1,1.3-3.412c.02-.046.041-.091.061-.134l.03-.065h0a16.486,16.486,0,0,0,1.04-3.139,31.019,31.019,0,0,0,.648-4.119,61.252,61.252,0,0,0-.078-10.883c-.14-1.637-.289-3.955-.442-6.891-.526-10-.945-24.185-.95-24.328a.4.4,0,0,1,.387-.41h.012a.4.4,0,0,1,.4.387c0,.142.423,14.32.949,24.309.153,2.927.3,5.236.44,6.864.7,8.107.1,14.693-1.681,18.543l-.032.07c-.019.04-.038.082-.055.121l0,.005a24.8,24.8,0,0,0-1.258,3.308,16.551,16.551,0,0,0-.7,4.11,11.164,11.164,0,0,0,.687,4.375,10.823,10.823,0,0,0,2.916,4.169.4.4,0,0,1-.268.694Z" transform="translate(-824.004 -907.116)" fill="#f06082" opacity="0.75"/>
  <path id="Path_217" data-name="Path 217" d="M1226.618,1338.932a.4.4,0,0,1-.355-.579l.261-.513c2.613-5.136,3.924-7.714,4.429-9.375v0c.052-.163.094-.311.128-.454a5.858,5.858,0,0,0-.007-1.292c-.041-.672-.119-1.575-.239-2.758-.226-2.224-.572-5.146-.938-8.239-.427-3.608-.869-7.339-1.217-10.739-.136-1.327-.253-2.563-.346-3.676a.4.4,0,0,1,.795-.067c.093,1.108.209,2.339.345,3.661.348,3.393.789,7.121,1.216,10.726.366,3.1.713,6.022.94,8.252.333,3.265.3,4.016.228,4.319-.038.159-.085.325-.142.5-.526,1.728-1.848,4.327-4.48,9.5l-.261.512A.4.4,0,0,1,1226.618,1338.932Z" transform="translate(-1083.469 -981.054)" fill="#f06082" opacity="0.75"/>
  <path id="Path_218" data-name="Path 218" d="M1462.979,1382.64a.4.4,0,0,1-.4-.377c0-.032-.18-3.22-.554-7.584-.344-4.025-.93-9.9-1.763-15.037a.4.4,0,0,1,.787-.128c.462,2.849,1.144,7.781,1.77,15.1.374,4.375.553,7.573.555,7.6a.4.4,0,0,1-.376.42Z" transform="translate(-1255.292 -1023.863)" fill="#54c3e5"/>
  <path id="Path_219" data-name="Path 219" d="M1234.438,1320.326a.4.4,0,0,1-.056-.794c2.9-.414,10.118-1.92,18.479-3.663,10.965-2.286,23.392-4.878,29.29-5.665a.4.4,0,0,1,.105.791c-5.868.784-18.281,3.372-29.232,5.656-8.375,1.746-15.607,3.254-18.529,3.672A.39.39,0,0,1,1234.438,1320.326Z" transform="translate(-1089.21 -987.903)" fill="#54c3e5"/>
  <path id="Path_220" data-name="Path 220" d="M1421.168,1304.981a.4.4,0,0,1-.064-.792c4.2-.693,7.6-1.394,7.637-1.4a.4.4,0,0,1,.161.781c-.034.007-3.457.711-7.669,1.406A.4.4,0,0,1,1421.168,1304.981Z" transform="translate(-1226.301 -982.456)" fill="#54c3e5"/>
  <path id="Path_221" data-name="Path 221" d="M1440.849,1324.943a.4.4,0,0,1-.391-.324c-.018-.1-1.849-9.614-2.942-13.359a.4.4,0,1,1,.766-.224c1.1,3.781,2.941,13.336,2.96,13.432a.4.4,0,0,1-.316.467A.41.41,0,0,1,1440.849,1324.943Z" transform="translate(-1238.583 -988.307)" fill="#54c3e5"/>
  <path id="Path_222" data-name="Path 222" d="M1426.521,1323.313a.4.4,0,0,1-.39-.319c-.022-.106-2.182-10.667-2.905-14.878a.4.4,0,0,1,.786-.135c.722,4.2,2.879,14.747,2.9,14.853a.4.4,0,0,1-.311.47A.375.375,0,0,1,1426.521,1323.313Z" transform="translate(-1228.099 -986.031)" fill="#54c3e5"/>
  <path id="Path_223" data-name="Path 223" d="M1411.873,1326.311a.4.4,0,0,1-.394-.343c-.016-.11-1.565-11.02-2.351-14.738a.4.4,0,1,1,.78-.165c.791,3.745,2.344,14.681,2.36,14.791a.4.4,0,0,1-.339.451A.368.368,0,0,1,1411.873,1326.311Z" transform="translate(-1217.747 -988.307)" fill="#54c3e5"/>
  <path id="Path_224" data-name="Path 224" d="M1392.153,1327.9a.4.4,0,0,1-.393-.335,55.251,55.251,0,0,0-1.43-5.958,48.817,48.817,0,0,1-1.557-6.815.4.4,0,0,1,.791-.1,48.191,48.191,0,0,0,1.534,6.7,55.822,55.822,0,0,1,1.449,6.044.4.4,0,0,1-.394.463Z" transform="translate(-1202.807 -990.943)" fill="#54c3e5"/>
  <path id="Path_225" data-name="Path 225" d="M1379.876,1331.221h-.014a.4.4,0,0,1-.384-.413,33.754,33.754,0,0,0-.769-6.485,39.652,39.652,0,0,1-.871-7.544.4.4,0,1,1,.8.02,39.1,39.1,0,0,0,.859,7.384,34.246,34.246,0,0,1,.781,6.654A.4.4,0,0,1,1379.876,1331.221Z" transform="translate(-1194.777 -992.448)" fill="#54c3e5"/>
  <path id="Path_226" data-name="Path 226" d="M1365.17,1334.764a.4.4,0,0,1-.4-.369c-.123-1.636-.544-3.869-.99-6.234a52.961,52.961,0,0,1-1.172-8.383.4.4,0,1,1,.8,0,52.61,52.61,0,0,0,1.158,8.235c.45,2.387.876,4.641,1,6.322a.4.4,0,0,1-.368.427Z" transform="translate(-1183.602 -994.643)" fill="#54c3e5"/>
  <path id="Path_227" data-name="Path 227" d="M1352.389,1336.229a.4.4,0,0,1-.4-.379c0-.021-.109-2.109-.391-4.8a58.675,58.675,0,0,0-1.456-8.654.4.4,0,0,1,.769-.212,59.448,59.448,0,0,1,1.481,8.787c.284,2.714.393,4.819.394,4.84a.4.4,0,0,1-.378.419Z" transform="translate(-1174.439 -996.485)" fill="#54c3e5"/>
  <path id="Path_228" data-name="Path 228" d="M1340.366,1338.486a.4.4,0,0,1-.4-.356c-.105-.975-.469-2.708-.891-4.715a71.058,71.058,0,0,1-1.469-8.542.4.4,0,0,1,.374-.422h.025a.4.4,0,0,1,.4.374,70.824,70.824,0,0,0,1.453,8.427c.426,2.028.793,3.779.9,4.793a.4.4,0,0,1-.354.439Z" transform="translate(-1165.247 -998.365)" fill="#54c3e5"/>
  <path id="Path_229" data-name="Path 229" d="M1328.53,1341.907a.4.4,0,0,1-.392-.329c-.016-.091-1.609-9.1-2.708-14.124a.4.4,0,0,1,.779-.171c1.1,5.035,2.7,14.065,2.715,14.156a.4.4,0,0,1-.393.468Z" transform="translate(-1156.298 -1000.215)" fill="#54c3e5"/>
  <path id="Path_230" data-name="Path 230" d="M1311.858,1348.319a.4.4,0,0,1-.391-.323c-.013-.066-1.292-6.693-1.556-10.52a.4.4,0,1,1,.8-.055c.261,3.778,1.531,10.357,1.543,10.423a.4.4,0,0,1-.392.475Z" transform="translate(-1144.911 -1007.615)" fill="#54c3e5"/>
  <path id="Path_231" data-name="Path 231" d="M1299.175,1347.691a.4.4,0,0,1-.392-.328c-.171-.953-.406-2.045-.656-3.2a63.661,63.661,0,0,1-1.647-10.757.4.4,0,0,1,.383-.414h.016a.4.4,0,0,1,.4.383,63.062,63.062,0,0,0,1.63,10.621c.251,1.163.488,2.261.661,3.228a.4.4,0,0,1-.393.469Z" transform="translate(-1135.051 -1004.635)" fill="#54c3e5"/>
  <path id="Path_232" data-name="Path 232" d="M1289.314,1349.641a.4.4,0,0,1-.388-.308c-.006-.024-.568-2.428-1.119-5.323a50.034,50.034,0,0,1-1.1-8.594.4.4,0,0,1,.4-.4h0a.4.4,0,0,1,.4.4,52.914,52.914,0,0,0,1.084,8.439c.548,2.879,1.106,5.266,1.112,5.29a.4.4,0,0,1-.3.479A.407.407,0,0,1,1289.314,1349.641Z" transform="translate(-1127.877 -1006.125)" fill="#54c3e5"/>
  <path id="Path_233" data-name="Path 233" d="M1270.6,1348.431h0a.4.4,0,0,1-.394-.4c.023-1.976-1.107-8.17-2.283-12.5a.4.4,0,0,1,.77-.209c.565,2.084,1.15,4.71,1.605,7.2a36.068,36.068,0,0,1,.705,5.519A.4.4,0,0,1,1270.6,1348.431Z" transform="translate(-1114.069 -1006.125)" fill="#54c3e5"/>
  <path id="Path_234" data-name="Path 234" d="M1257.366,1355.859a.4.4,0,0,1-.38-.28c-.007-.023-.72-2.315-1.408-5.107-.405-1.643-.723-3.136-.945-4.439a21.641,21.641,0,0,1-.382-4.005.4.4,0,0,1,.4-.388h.011a.4.4,0,0,1,.388.409,37.239,37.239,0,0,0,1.3,8.228c.683,2.77,1.389,5.043,1.4,5.065a.4.4,0,0,1-.381.517Z" transform="translate(-1104.046 -1010.985)" fill="#54c3e5"/>
  <path id="Path_235" data-name="Path 235" d="M1157.183,1035.111a.965.965,0,0,1-.433-.109,3.053,3.053,0,0,1-1.087-1.2,11.574,11.574,0,0,1-.9-1.968,10.62,10.62,0,0,1-.743-4.383.4.4,0,1,1,.792.092,9.978,9.978,0,0,0,.7,4.021,10.76,10.76,0,0,0,.839,1.83,2.27,2.27,0,0,0,.76.894c.068.034.079.029.1.007.035-.05.253-.459.133-2.759-.071-1.352-.244-3.142-.514-5.32-.462-3.717-1.056-7.318-1.062-7.354a.4.4,0,0,1,.787-.13c.006.037.616,3.736,1.083,7.515.275,2.225.447,4.044.511,5.406a16.593,16.593,0,0,1,0,1.979,1.9,1.9,0,0,1-.385,1.238A.835.835,0,0,1,1157.183,1035.111Z" transform="translate(-1030.437 -773.674)" fill="#54c3e5"/>
  <path id="Path_236" data-name="Path 236" d="M1166.4,1005.657a.4.4,0,0,1-.37-.249c0-.006-.271-.661-1.025-2.13-.7-1.355-1.96-3.7-4.031-7.175a.4.4,0,0,1,.685-.408,83.248,83.248,0,0,1,5.11,9.414.4.4,0,0,1-.369.548Z" transform="translate(-1035.528 -756.861)" fill="#54c3e5"/>
  <path id="Path_237" data-name="Path 237" d="M887.2,1160.378l-.046,0a51.785,51.785,0,0,0-6.365,0h-.016a.4.4,0,0,1-.015-.8,50.846,50.846,0,0,1,6.486,0,.4.4,0,0,1-.045.8Z" transform="translate(-829.565 -877.263)" fill="#2c2f53"/>
  <path id="Path_238" data-name="Path 238" d="M1043.875,713.523a.665.665,0,0,1-.652-.8,5.049,5.049,0,0,1,3.257-3.922,6.628,6.628,0,0,1,2.507-.423l-.08,1.327h0a5.353,5.353,0,0,0-2,.354,3.733,3.733,0,0,0-2.387,2.926A.665.665,0,0,1,1043.875,713.523Z" transform="translate(-949.109 -546.067)" fill="#2c2f53"/>
  <path id="Path_274" data-name="Path 274" d="M1104.032,750.4c-.946.925-5.051,1.834-8.858.75a10.245,10.245,0,0,1-2.594-1.133,68.483,68.483,0,0,0,9.344-6.072c.8-.617,1.295-1,1.295-1S1105.2,749.248,1104.032,750.4Z" transform="translate(-985.355 -571.441)" fill="#2c2f53"/>
  <path id="Path_275" data-name="Path 275" d="M1102.247,749.26s-3.841,2.815-7.093,4.644a10.244,10.244,0,0,1-2.594-1.132,68.484,68.484,0,0,0,9.344-6.072A7.445,7.445,0,0,1,1102.247,749.26Z" transform="translate(-985.34 -574.201)" fill="#fff"/>
  <path id="Path_242" data-name="Path 242" d="M900.209,852.975a.4.4,0,0,1-.17-.76c2.111-.995,4.579-2.187,6.884-3.489a40.828,40.828,0,0,0,6.2-4.2,25.725,25.725,0,0,0,2.6-2.5,20.52,20.52,0,0,0,2.144-2.835,18.263,18.263,0,0,0,1.6-3.231,18.723,18.723,0,0,0,.965-3.691.4.4,0,1,1,.788.123c-.773,4.943-3.253,9.111-7.584,12.742a41.6,41.6,0,0,1-6.317,4.278c-2.327,1.315-4.812,2.516-6.936,3.516A.4.4,0,0,1,900.209,852.975Z" transform="translate(-843.83 -636.781)" fill="#505c7b"/>
  <path id="Path_243" data-name="Path 243" d="M810.815,855.071a10.044,10.044,0,0,1-1.555-.119,9.156,9.156,0,0,1-3.755-1.483,15.1,15.1,0,0,1-2.606-2.2c-.288.1-.61.217-.948.322a19.792,19.792,0,0,1-6.327,1.007,10.707,10.707,0,0,1-4.646-1.1.4.4,0,0,1,.364-.71,9.918,9.918,0,0,0,4.3,1.012,19.013,19.013,0,0,0,6.07-.972c.216-.067.423-.136.621-.206a8.239,8.239,0,0,1-1.5-2.725,5.387,5.387,0,0,1-.1-3,5.02,5.02,0,0,1,1.377-2.324,6.571,6.571,0,0,1,2.543-1.5,4.186,4.186,0,0,1,1.537-.221,3.535,3.535,0,0,1,1.363.344,3.487,3.487,0,0,1,1.769,1.993,4.073,4.073,0,0,1,.172,1.975,5.31,5.31,0,0,1-.871,2.152,8.358,8.358,0,0,1-2.064,2.076,14.092,14.092,0,0,1-2.861,1.565,14.3,14.3,0,0,0,2.242,1.846l0,0a8.364,8.364,0,0,0,3.433,1.356,10.285,10.285,0,0,0,3.721-.14,18.292,18.292,0,0,0,7.3-3.644,25.531,25.531,0,0,0,3.182-2.976,24.084,24.084,0,0,0,2.559-3.379.4.4,0,1,1,.677.422,24.9,24.9,0,0,1-2.644,3.492,26.306,26.306,0,0,1-3.282,3.069,19.083,19.083,0,0,1-7.632,3.8A11.864,11.864,0,0,1,810.815,855.071ZM806,841.644a3.462,3.462,0,0,0-1.093.186,5.781,5.781,0,0,0-2.238,1.319,4.232,4.232,0,0,0-1.163,1.958c-.435,1.635.139,3.483,1.616,5.227a13.615,13.615,0,0,0,2.971-1.585,7.571,7.571,0,0,0,1.87-1.875,4.521,4.521,0,0,0,.745-1.829,3.274,3.274,0,0,0-.135-1.587,2.694,2.694,0,0,0-1.364-1.542A2.758,2.758,0,0,0,806,841.644Z" transform="translate(-763.769 -643.321)" fill="#505c7b"/>
  <path id="Path_244" data-name="Path 244" d="M1059.689,988.051a.4.4,0,0,1-.26-.1c-.031-.026-3.1-2.673-7.213-5.884-2.414-1.884-4.711-3.591-6.825-5.072a79.336,79.336,0,0,0-7.014-4.46.4.4,0,0,1,.385-.7,80.178,80.178,0,0,1,7.089,4.507c2.126,1.49,4.434,3.205,6.86,5.1,4.128,3.222,7.209,5.88,7.24,5.906a.4.4,0,0,1-.261.7Z" transform="translate(-945.409 -739.454)" fill="#2c2f53"/>
  <path id="Path_245" data-name="Path 245" d="M1020.68,889.311a.4.4,0,0,1-.182-.044c-.044-.023-4.443-2.285-10.3-5.006a.4.4,0,0,1,.336-.723c5.87,2.729,10.282,5,10.326,5.021a.4.4,0,0,1-.183.753Z" transform="translate(-924.705 -674.635)" fill="#2c2f53"/>
  <path id="Path_246" data-name="Path 246" d="M1067.927,835.416l-.372,0a.4.4,0,0,1,0-.8h0c.54,0,1.1,0,1.724-.019a55.882,55.882,0,0,0,13.638-2.112c1.06-.3,1.663-.521,1.669-.523a.4.4,0,1,1,.273.749c-.025.009-.632.229-1.723.54a56.679,56.679,0,0,1-13.833,2.142C1068.819,835.409,1068.363,835.416,1067.927,835.416Z" transform="translate(-966.692 -636.781)" fill="#2c2f53"/>
  <path id="Path_247" data-name="Path 247" d="M1009.588,827.191a.4.4,0,0,1-.121-.779,5.79,5.79,0,0,0,2.367-1.276,1.044,1.044,0,0,0,.322-.578.4.4,0,0,1,.8-.033c.01.162,0,1.616-3.244,2.648A.4.4,0,0,1,1009.588,827.191Z" transform="translate(-924.133 -631.062)" fill="#2c2f53"/>
  <path id="Path_248" data-name="Path 248" d="M994.148,780.724a.4.4,0,0,1-.3-.135,74.469,74.469,0,0,1-5.9-7.617.4.4,0,0,1,.661-.446,73.645,73.645,0,0,0,5.838,7.535.4.4,0,0,1-.3.663Z" transform="translate(-908.488 -593.032)" fill="#2c2f53"/>
  <circle id="Ellipse_86" data-name="Ellipse 86" cx="1.914" cy="1.914" r="1.914" transform="translate(81.833 190.78)" fill="#fff"/>
  <path id="Path_276" data-name="Path 276" d="M1127.682,942.468l-14.259,1.414-4.192-3.5,15.211-1.614S1126.2,940.676,1127.682,942.468Z" transform="translate(-997.579 -715.212)" fill="#f06082" opacity="0.5"/>
  <path id="Path_250" data-name="Path 250" d="M1446.158,883.529a.4.4,0,0,1-.369-.247c-.012-.029-1.2-2.918-2.693-7.909a.4.4,0,0,1,.764-.229c1.48,4.948,2.654,7.805,2.666,7.833a.4.4,0,0,1-.368.551Z" transform="translate(-1242.68 -668.292)" fill="#2c2f53"/>
  <path id="Path_251" data-name="Path 251" d="M1455.189,807.36a.4.4,0,0,1-.386-.3c-.04-.156-3.981-15.671-6.141-24.344a.4.4,0,0,1,.774-.193c2.16,8.671,6.1,24.185,6.14,24.341a.4.4,0,0,1-.387.5Z" transform="translate(-1246.769 -600.279)" fill="#2c2f53"/>
  <path id="Path_277" data-name="Path 277" d="M1414.494,1021.752s-5.093-7.361-11.213-9.6a1.3,1.3,0,0,1,.449-1.731c5.386-.348,10.758,4.051,12.258,8.727C1415.988,1019.144,1416.256,1021.273,1414.494,1021.752Z" transform="translate(-1213.342 -767.798)" fill="#f06082" opacity="0.5"/>
  <path id="Path_253" data-name="Path 253" d="M1329.578,1148.069a.4.4,0,0,1-.292-.127c-.081-.086-8.079-8.673-10.683-11.566a.4.4,0,0,1,.593-.533c2.6,2.888,10.593,11.47,10.674,11.556a.4.4,0,0,1-.292.671Z" transform="translate(-1151.218 -859.799)" fill="#f06082" opacity="0.75"/>
  <path id="Path_254" data-name="Path 254" d="M1319.848,1156.987a.4.4,0,0,1-.361-.229,25.806,25.806,0,0,0-1.831-3.148c-.725-1.092-1.623-2.338-2.67-3.7-1.693-2.207-3.783-4.745-6.579-7.987a.4.4,0,0,1,.6-.521c4.233,4.91,9.331,11.055,11.2,15.02a.4.4,0,0,1-.36.569Z" transform="translate(-1143.737 -863.873)" fill="#f06082" opacity="0.75"/>
  <path id="Path_255" data-name="Path 255" d="M1315.554,1166.538a.4.4,0,0,1-.4-.38c-.073-1.5-.317-5.479-1.01-10.011-.329-2.147-.714-4.109-1.144-5.83a29.126,29.126,0,0,0-1.675-5.013.4.4,0,0,1,.725-.333,29.919,29.919,0,0,1,1.724,5.153c.436,1.745.826,3.731,1.159,5.9.7,4.569.945,8.58,1.018,10.093a.4.4,0,0,1-.379.418Z" transform="translate(-1145.924 -866.428)" fill="#f06082" opacity="0.75"/>
  <path id="Path_256" data-name="Path 256" d="M871.489,1067.349a.4.4,0,0,1-.1-.014.408.408,0,0,1-.284-.281,1.151,1.151,0,0,1-.033-.15c-.027-.156-.058-.421-.092-.789-.107-1.133-.243-3.21-.4-6.005a.4.4,0,0,1,.376-.42h.022a.4.4,0,0,1,.4.377c.31,5.684.457,6.608.484,6.74a.4.4,0,0,1-.372.542Z" transform="translate(-822.37 -803.988)" fill="#f06082" opacity="0.75"/>
  <path id="Path_278" data-name="Path 278" d="M818.691,898c-3.036,3.852-3.871,5.468-4.065,11.388s-.351,8.773,2.81,11.069l-2.9.88a34.237,34.237,0,0,1,.478,6.811c-.13,3.631-.194,7.459-3.437,9.663a127.576,127.576,0,0,1-11.431,6.84,3.962,3.962,0,0,1-5.824-2.5c-.066-1.433.231-1.752-3.094-2.725s-6.766-2.393-8.127-8.507-1.558-11.638,0-16.652,4.54-13.026,11.415-14.725C794.5,899.568,805.365,903,818.691,898Z" transform="translate(-757.344 -685.28)" fill="#63cdf6" opacity="0.5"/>
  <path id="Path_258-2" data-name="Path 258" d="M879.9,987.859a.4.4,0,0,1-.18-.755c.021-.011,2.187-1.1,6.229-2.764a.4.4,0,0,1,.3.737c-4.011,1.654-6.153,2.728-6.175,2.739A.4.4,0,0,1,879.9,987.859Z" transform="translate(-828.919 -748.646)" fill="#54c3e5"/>
  <path id="Path_259-2" data-name="Path 259" d="M861.239,974.79a.4.4,0,0,1-.164-.762,76.736,76.736,0,0,1,7.389-2.719c2.418-.788,4.379-1.367,4.4-1.373a.4.4,0,1,1,.225.765c-.078.023-7.808,2.307-11.685,4.054A.4.4,0,0,1,861.239,974.79Z" transform="translate(-815.219 -738.081)" fill="#54c3e5"/>
  <path id="Path_260-2" data-name="Path 260" d="M852.9,966.476a.4.4,0,0,1-.068-.792,56.17,56.17,0,0,0,7.428-2.082,40.946,40.946,0,0,1,5.955-1.669.4.4,0,1,1,.115.789,40.557,40.557,0,0,0-5.821,1.637,57.616,57.616,0,0,1-7.539,2.109A.408.408,0,0,1,852.9,966.476Z" transform="translate(-809.096 -732.215)" fill="#54c3e5"/>
  <path id="Path_261-2" data-name="Path 261" d="M856.708,954.494a.4.4,0,0,1-.066-.792,44.009,44.009,0,0,0,6.509-1.784,32.436,32.436,0,0,1,5.882-1.566.4.4,0,0,1,.1.791,31.876,31.876,0,0,0-5.732,1.531,44.606,44.606,0,0,1-6.626,1.813A.408.408,0,0,1,856.708,954.494Z" transform="translate(-811.894 -723.714)" fill="#54c3e5"/>
  <path id="Path_262-2" data-name="Path 262" d="M849.9,938.136a.4.4,0,0,1-.044-.8,45.372,45.372,0,0,0,9.108-2.467,34.855,34.855,0,0,1,6.7-1.883.4.4,0,1,1,.083.793,34.475,34.475,0,0,0-6.523,1.843,45.923,45.923,0,0,1-9.281,2.506Z" transform="translate(-806.894 -710.969)" fill="#54c3e5"/>
  <path id="Path_263-2" data-name="Path 263" d="M852.9,925.377a.4.4,0,0,1-.048-.795,35.354,35.354,0,0,0,5.1-1.1c1.79-.5,3.634-1.1,5.261-1.625a50.3,50.3,0,0,1,5.341-1.551.4.4,0,0,1,.143.785,50.091,50.091,0,0,0-5.239,1.525c-1.634.529-3.486,1.129-5.292,1.634a36.11,36.11,0,0,1-5.217,1.124A.4.4,0,0,1,852.9,925.377Z" transform="translate(-809.096 -701.652)" fill="#54c3e5"/>
  <path id="Path_264-2" data-name="Path 264" d="M856.708,918.181a.4.4,0,0,1-.131-.775,84.869,84.869,0,0,1,9.042-2.477c2.617-.58,4.531-.91,4.55-.913a.4.4,0,0,1,.135.786c-.019,0-1.918.331-4.517.906a84.07,84.07,0,0,0-8.948,2.451A.4.4,0,0,1,856.708,918.181Z" transform="translate(-811.893 -697.034)" fill="#54c3e5"/>
  <path id="Path_265-2" data-name="Path 265" d="M857.144,929.938a.4.4,0,0,1-.131-.022c-3.25-1.13-5.34-3.1-6.212-5.871a11.548,11.548,0,0,1-.38-4.677,20.88,20.88,0,0,1,1.149-4.807,33.069,33.069,0,0,1,4.123-7.836.4.4,0,1,1,.646.467,32.276,32.276,0,0,0-4.018,7.637,20.084,20.084,0,0,0-1.107,4.621,10.759,10.759,0,0,0,.347,4.354,7.437,7.437,0,0,0,1.889,3.1,10.106,10.106,0,0,0,3.824,2.257.4.4,0,0,1-.131.776Z" transform="translate(-807.512 -691.565)" fill="#54c3e5"/>
  <path id="Path_266-2" data-name="Path 266" d="M799.068,925.667a.4.4,0,0,1-.362-.565,9.807,9.807,0,0,1,2.8-3.4,22.423,22.423,0,0,1,4.419-2.735,41.236,41.236,0,0,1,10.518-3.321.4.4,0,1,1,.135.786,40.418,40.418,0,0,0-10.306,3.253c-3.543,1.714-5.91,3.7-6.846,5.749A.4.4,0,0,1,799.068,925.667Z" transform="translate(-769.576 -698.231)" fill="#54c3e5"/>
  <path id="Path_267-2" data-name="Path 267" d="M1400.574,1220.182a.4.4,0,0,1-.309-.146l-5.415-6.63a.4.4,0,0,1,.618-.5l5.054,6.188,4.925-8.3-4.324-9.048a.4.4,0,0,1,.72-.344l4.415,9.24a.4.4,0,0,1-.017.375l-5.325,8.974a.4.4,0,0,1-.313.194Z" transform="translate(-1207.205 -907.857)" fill="#fff"/>
  <path id="Path_268-2" data-name="Path 268" d="M1376.166,973.223a.4.4,0,0,1-.337-.186l-4.987-7.885a.4.4,0,0,1,.005-.435l5.365-8.031a.4.4,0,0,1,.329-.177h0a.4.4,0,0,1,.329.173l4.841,7.063a.4.4,0,0,1,.056.33l-1.021,3.743a.4.4,0,1,1-.769-.21l.972-3.565-4.4-6.425-4.893,7.325,4.849,7.666a.4.4,0,0,1-.337.612Z" transform="translate(-1189.6 -728.236)" fill="#fff"/>
  <path id="Path_269-2" data-name="Path 269" d="M1356.873,827.014a.4.4,0,0,1-.3-.14l-7.215-8.435a.4.4,0,0,1-.024-.488l6.159-8.791a.4.4,0,0,1,.674.033l4.663,8.27a.4.4,0,0,1,.022.345l-3.607,8.956a.4.4,0,0,1-.37.25Zm-6.711-8.858,6.587,7.7,3.29-8.168-4.258-7.552Z" transform="translate(-1173.801 -619.932)" fill="#fff"/>
  <path id="Path_270-2" data-name="Path 270" d="M1293.8,724.786a.4.4,0,0,1-.347-.2l-4.705-8.286a.4.4,0,0,1-.01-.375l4.663-9.312a.4.4,0,0,1,.351-.22h.005a.4.4,0,0,1,.352.211l4.75,8.887a.4.4,0,0,1,0,.378l-4.708,8.711a.4.4,0,0,1-.347.209Zm-4.253-8.7,4.245,7.475,4.264-7.89-4.286-8.018Z" transform="translate(-1129.34 -544.607)" fill="#fff"/>
  <path id="Path_271-2" data-name="Path 271" d="M1132.3,685.121a.4.4,0,0,1-.342-.6l3.655-6.109-4.634-7.779-4.083,7.893a.4.4,0,0,1-.708-.366l4.413-8.531a.4.4,0,0,1,.7-.021l5.123,8.6a.4.4,0,0,1,0,.409l-3.777,6.314A.4.4,0,0,1,1132.3,685.121Z" transform="translate(-1009.993 -517.458)" fill="#fff"/>
  <path id="Path_272-2" data-name="Path 272" d="M1234.9,822.56h.009a.4.4,0,0,1,.35.225l4.378,9.062a.4.4,0,0,1-.028.4l-4.8,7.146a.4.4,0,0,1-.689-.048l-3.958-8.113a.4.4,0,0,1,.008-.365l4.381-8.095A.4.4,0,0,1,1234.9,822.56Zm3.92,9.429-3.94-8.155-3.912,7.229,3.565,7.307Z" transform="translate(-1086.332 -629.895)" fill="#fff"/>
  <path id="Path_273-2" data-name="Path 273" d="M1373.633,657.912a.4.4,0,0,1-.341-.193l-5.1-8.446a.4.4,0,0,1,0-.405l5.077-8.8a.4.4,0,0,1,.68-.017l5.077,7.853a.4.4,0,0,1,.016.405l-5.051,9.392a.4.4,0,0,1-.341.21Zm-4.641-8.849,4.621,7.646,4.608-8.569-4.6-7.107Z" transform="translate(-1187.654 -495.771)" fill="#fff"/>
  <path id="Path_274-2" data-name="Path 274" d="M1256.382,611.045h-.013a.4.4,0,0,1-.324-.186l-5.014-7.948a.4.4,0,0,1-.018-.395l4.575-8.929a.4.4,0,0,1,.668-.065l6.6,8.392a.4.4,0,0,1,.009.481l-6.16,8.485A.4.4,0,0,1,1256.382,611.045Zm-4.555-8.368,4.578,7.258,5.637-7.765-6.027-7.666Z" transform="translate(-1101.639 -461.632)" fill="#fff"/>
  <path id="Path_275-2" data-name="Path 275" d="M1187.081,704.74h.026a.4.4,0,0,1,.34.24l3.607,8.358a.4.4,0,0,1,0,.326l-4.841,10.429a.4.4,0,0,1-.725,0l-4.309-9.549a.4.4,0,0,1,.021-.369l5.543-9.238A.4.4,0,0,1,1187.081,704.74Zm3.171,8.751-3.229-7.48-5.035,8.392,3.865,8.564Z" transform="translate(-1050.373 -543.396)" fill="#fff"/>
  <path id="Path_276-2" data-name="Path 276" d="M1137.79,846.06a.4.4,0,0,1,.321.162l5.641,7.656a.4.4,0,0,1,.02.444l-5.367,8.828a.4.4,0,0,1-.332.192h-.009a.4.4,0,0,1-.331-.177l-5.915-8.828a.4.4,0,0,1,.01-.458l5.641-7.656A.4.4,0,0,1,1137.79,846.06Zm5.161,8.076-5.161-7.005-5.154,6.995,5.411,8.077Z" transform="translate(-1014.112 -647.148)" fill="#fff"/>
  <path id="Path_277-2" data-name="Path 277" d="M1282.1,931.12a.4.4,0,0,1,.327.171l6.856,9.852a.4.4,0,0,1,.024.416l-5.28,9.854a.4.4,0,0,1-.346.21h-.006a.4.4,0,0,1-.346-.2l-6.157-10.734a.4.4,0,0,1-.009-.38l4.58-8.972a.4.4,0,0,1,.328-.216Zm6.389,10.278-6.336-9.105-4.18,8.187,5.692,9.923Z" transform="translate(-1120.838 -709.596)" fill="#fff"/>
  <path id="Path_278-2" data-name="Path 278" d="M1244.486,1053.24a.4.4,0,0,1,.323.164l6.776,9.326a.4.4,0,0,1,.031.419l-5.67,10.822a.4.4,0,0,1-.679.045l-6.473-9.15a.4.4,0,0,1-.033-.405l5.367-11a.4.4,0,0,1,.324-.222Zm6.308,9.758-6.241-8.588-4.973,10.189,5.96,8.425Z" transform="translate(-1092.646 -799.252)" fill="#fff"/>
  <path id="Path_279" data-name="Path 279" d="M1181.936,951.3a.4.4,0,0,1,.317.157l5.367,7.039a.4.4,0,0,1,0,.48L1181.2,967.6a.4.4,0,0,1-.672-.051l-4.312-8.095a.4.4,0,0,1,.027-.418l5.367-7.568a.4.4,0,0,1,.318-.168Zm4.868,7.441-4.856-6.369-4.911,6.925,3.9,7.322Z" transform="translate(-1046.724 -724.411)" fill="#fff"/>
  <path id="Path_280" data-name="Path 280" d="M1147.628,1141.564a.4.4,0,0,1-.368-.553l4.931-11.737a.4.4,0,0,1,.681-.092l7.409,9.448a.4.4,0,0,1-.627.492l-6.99-8.914L1148,1141.32A.4.4,0,0,1,1147.628,1141.564Z" transform="translate(-1025.477 -854.895)" fill="#fff"/>
  <path id="Path_281" data-name="Path 281" d="M1085.41,1070.01a.4.4,0,0,1,.321.162l5.532,7.494a.4.4,0,0,1,.026.433l-4.649,8.2a.4.4,0,0,1-.672.034l-5.814-8.2a.4.4,0,0,1-.008-.45l4.931-7.494a.4.4,0,0,1,.323-.179Zm5.057,7.921-5.038-6.826-4.467,6.789,5.293,7.462Z" transform="translate(-976.178 -811.564)" fill="#fff"/>
  <path id="Path_282" data-name="Path 282" d="M1021.109,1157.56a.4.4,0,0,1-.273-.109l-2.531-2.385a.4.4,0,0,1-.07-.493l5.314-8.988a.4.4,0,0,1,.648-.054l7.6,8.988a.4.4,0,1,1-.609.515l-7.235-8.56-4.866,8.23,2.3,2.166a.4.4,0,0,1-.273.689Z" transform="translate(-930.733 -866.906)" fill="#fff"/>
  <path id="Path_283" data-name="Path 283" d="M978.018,1074.006h-.01a.4.4,0,0,1-.318-.172l-5.149-7.481a.4.4,0,0,1-.045-.366l2.672-7.138a.4.4,0,0,1,.747.28l-2.6,6.943,4.72,6.857,5.252-6.849-3.687-7.506a.4.4,0,0,1,.716-.352l3.8,7.728a.4.4,0,0,1-.042.419l-5.737,7.481A.4.4,0,0,1,978.018,1074.006Z" transform="translate(-897.174 -802.747)" fill="#fff"/>
  <circle id="Ellipse_87" data-name="Ellipse 87" cx="7.733" cy="7.733" r="7.733" transform="translate(85.397 170.864)" fill="#dc6437" opacity="0.3"/>
  <path id="Path_284" data-name="Path 284" d="M933.537,841.606c-1.123,0-2.137-.024-3.083-.073a31.358,31.358,0,0,1-5.044-.625,24.339,24.339,0,0,1-8.265-3.593c-2.67-1.691-5.854-2.457-10.647-2.562a.4.4,0,0,1-.111-.018,7.959,7.959,0,0,1-2.459-1.455,9.766,9.766,0,0,1-1.949-2.22,11.3,11.3,0,0,1-1.475-3.575,29.254,29.254,0,0,1-.686-7.464c.083-2,.448-4.76,1.716-6.538a3.826,3.826,0,0,1,2.772-1.712c1.462-.154,2.626-.211,3.562-.257,2-.1,3-.147,4.038-.953.278-.215.533-.44.8-.679a9.888,9.888,0,0,1,2.447-1.714,14.25,14.25,0,0,1,4.759-1.145c2.817-.268,6.7-.8,10.383-1.427a106.285,106.285,0,0,0,11.012-2.379c2.874-.84,6.132-1.791,9-2.75a38.626,38.626,0,0,0,6.726-2.754c.576-.336,1.091-.645,1.589-.944,2.17-1.3,3.6-2.161,5.4-2.391a11.808,11.808,0,0,1,4.987,1.021c-.077-.4-.163-.934-.221-1.528a7.781,7.781,0,0,1,.43-3.98,7.165,7.165,0,0,1,.919-3.288c.178-.289.483-.754.906-1.4a121.923,121.923,0,0,0,6.989-11.7c1.226-2.446,3.459-8.915,6.287-18.215,2.464-8.105,4.628-15.889,5.413-19.1.222-.906.449-1.88.691-2.91.788-3.364,1.681-7.176,2.787-10.509,1.3-3.909,2.651-6.412,4.137-7.65a.4.4,0,0,1,.51.613,9.291,9.291,0,0,0-2.1,2.87,30.732,30.732,0,0,0-1.792,4.418c-1.095,3.3-1.983,7.092-2.767,10.439-.242,1.032-.47,2.008-.693,2.918-.787,3.22-2.956,11.022-5.425,19.141-1.645,5.411-4.656,14.988-6.337,18.341a122.667,122.667,0,0,1-7.035,11.784c-.4.613-.721,1.1-.893,1.376a6.468,6.468,0,0,0-.8,2.965.4.4,0,0,1-.042.178,6.979,6.979,0,0,0-.39,3.629,15.687,15.687,0,0,0,.366,2.171.4.4,0,0,1-.553.463c-.033-.015-3.311-1.509-5.272-1.259a7.461,7.461,0,0,0-2.337.733c-.812.388-1.667.9-2.75,1.551-.5.3-1.016.61-1.6.948a39.3,39.3,0,0,1-6.875,2.822c-2.887.964-6.153,1.917-9.034,2.759a107.062,107.062,0,0,1-11.1,2.4c-3.7.628-7.606,1.164-10.44,1.434-4.188.4-5.492,1.55-6.754,2.663-.267.236-.544.48-.842.711a4.509,4.509,0,0,1-1.959.888,17.558,17.558,0,0,1-2.528.232c-.926.045-2.078.1-3.517.254a2.818,2.818,0,0,0-1.232.428,3.581,3.581,0,0,0-.974.955,7.728,7.728,0,0,0-1.112,2.633,17.739,17.739,0,0,0-.456,3.474,28.409,28.409,0,0,0,.666,7.251,10.509,10.509,0,0,0,1.356,3.3,8.983,8.983,0,0,0,1.774,2.037,7.573,7.573,0,0,0,2.167,1.313,29.911,29.911,0,0,1,6.1.677,15.653,15.653,0,0,1,4.892,2.007,23.606,23.606,0,0,0,8.007,3.487,37.553,37.553,0,0,0,7.987.678c1.064,0,2.216-.022,3.472-.064a168.633,168.633,0,0,0,19.988-2.382c7.753-1.268,16.337-2.894,23.911-4.329,2.916-.553,5.67-1.074,8.305-1.563a22.533,22.533,0,0,0,15.525-10.087,52.543,52.543,0,0,0,4.86-9.31c1.5-3.551,2.96-7.6,4.509-11.885.875-2.423,1.781-4.929,2.768-7.562,6-16,12.3-35.992,15.679-46.734,1.228-3.9,2.115-6.717,2.51-7.83a12.367,12.367,0,0,1,1.924-3.811c.521-.6.894-.663,1.031-.663a.4.4,0,0,1,.043.8c-.077.026-.993.41-2.245,3.945-.39,1.1-1.275,3.911-2.5,7.8-3.385,10.749-9.685,30.756-15.693,46.774-.986,2.629-1.89,5.132-2.765,7.553-1.552,4.3-3.018,8.354-4.524,11.923a53.293,53.293,0,0,1-4.937,9.45,24.6,24.6,0,0,1-6.6,6.729,22.505,22.505,0,0,1-4.3,2.244,28.008,28.008,0,0,1-5.145,1.449c-2.634.489-5.387,1.011-8.3,1.563-7.578,1.436-16.168,3.063-23.931,4.333a169.337,169.337,0,0,1-20.09,2.392C935.767,841.584,934.6,841.606,933.537,841.606Z" transform="translate(-843.821 -550.95)" fill="#54c3e5"/>
  <path id="Path_285" data-name="Path 285" d="M1083.15,906.907a.4.4,0,0,1-.205-.057,27.845,27.845,0,0,0-6.005-2.611,46.875,46.875,0,0,0-7.013-1.589,53,53,0,0,0-9.248-.586h-.01a.4.4,0,0,1-.01-.8,53.812,53.812,0,0,1,9.387.595,47.65,47.65,0,0,1,7.132,1.617,28.636,28.636,0,0,1,6.178,2.689.4.4,0,0,1-.206.74Z" transform="translate(-961.634 -687.667)" fill="#2c2f53"/>
  <path id="Path_286" data-name="Path 286" d="M852.015,1031.875a.4.4,0,0,1-.29-.125l-2.916-3.089a.4.4,0,0,1-.053-.478l5.71-9.578a.4.4,0,0,1,.658-.04l5.721,7.412a.4.4,0,0,1-.631.487l-5.363-6.948-5.256,8.816,2.709,2.87a.4.4,0,0,1-.29.672Z" transform="translate(-806.307 -773.681)" fill="#fff"/>
  <path id="Path_287" data-name="Path 287" d="M799.327,974.331a.4.4,0,0,1-.288-.123l-4.758-4.984a.4.4,0,0,1-.093-.392l2.536-8.3a.4.4,0,0,1,.66-.168l5.075,4.969a.4.4,0,0,1,.1.414l-2.852,8.315a.4.4,0,0,1-.292.26A.405.405,0,0,1,799.327,974.331Zm-4.309-5.49,4.144,4.341,2.558-7.457-4.426-4.333Z" transform="translate(-766.273 -730.982)" fill="#fff"/>
  <path id="Path_288" data-name="Path 288" d="M1114.217,928.772a.4.4,0,0,1-.314-.153c-.226-.288-.482-.606-.764-.945-1.462-1.763-3.209-3.661-3.227-3.679a.4.4,0,0,1-.048-.476,14.912,14.912,0,0,0,.853-1.693c.637-1.512.547-2.157.437-2.407a.525.525,0,0,0-.43-.314,1.134,1.134,0,0,0-.944.188,2.877,2.877,0,0,0-.889,1.492,6.215,6.215,0,0,0-.225,1.039.4.4,0,0,1-.386.357h-.011a.4.4,0,0,1-.394-.335,2.016,2.016,0,0,0-.687-1.308,1.6,1.6,0,0,0-1.1-.321,1.793,1.793,0,0,0-1.061.444,1.362,1.362,0,0,0-.459,1.005.4.4,0,0,1-.781.108,2.238,2.238,0,0,0-.839-1.237,1.7,1.7,0,0,0-1.153-.29,1.754,1.754,0,0,0-1.1.571,2.362,2.362,0,0,0-.563,1.464.4.4,0,0,1-.761.14,2.662,2.662,0,0,0-.94-1.215,1.2,1.2,0,0,0-.9-.153,2.036,2.036,0,0,0-1.028.626,1.411,1.411,0,0,0-.419.8.4.4,0,0,1-.777.123,2.513,2.513,0,0,0-.559-1.009.813.813,0,0,0-.525-.251,1.315,1.315,0,0,0-.8.278,1.64,1.64,0,0,0-.484.5.4.4,0,0,1-.611.136,3.764,3.764,0,0,0-1.977-.8l-.088,0a.4.4,0,1,1-.039-.8c.042,0,.083,0,.125,0a4.165,4.165,0,0,1,2.139.732,2.851,2.851,0,0,1,.477-.421,2.109,2.109,0,0,1,1.314-.422,1.6,1.6,0,0,1,1.031.475,2.407,2.407,0,0,1,.353.443,3.028,3.028,0,0,1,.258-.321,2.808,2.808,0,0,1,1.45-.866,2,2,0,0,1,1.481.253,2.692,2.692,0,0,1,.712.653,2.85,2.85,0,0,1,.547-.9,2.55,2.55,0,0,1,1.6-.827,2.492,2.492,0,0,1,1.7.425,2.725,2.725,0,0,1,.683.682,2.235,2.235,0,0,1,.407-.492,2.57,2.57,0,0,1,1.54-.65,2.344,2.344,0,0,1,2.141,1.007,3.479,3.479,0,0,1,1.141-1.778,1.916,1.916,0,0,1,1.574-.327,1.326,1.326,0,0,1,1,.775,2.489,2.489,0,0,1,.066,1.5,8.233,8.233,0,0,1-.5,1.55,15.8,15.8,0,0,1-.751,1.528c.5.551,1.871,2.066,3.056,3.494.286.345.548.669.778.963a.4.4,0,0,1-.314.644Z" transform="translate(-983.343 -700.166)" fill="#f06082" opacity="0.75"/>
  <path id="Path_289" data-name="Path 289" d="M1171.366,1079.465q-1.286,0-2.614-.115a36.813,36.813,0,0,1-6.734-1.255,29.057,29.057,0,0,1-3.918-1.442,45.4,45.4,0,0,1-4.415-2.283,67.33,67.33,0,0,1-9.772-7.048,85.594,85.594,0,0,1-10.089-10.3,91.452,91.452,0,0,1-9.262-13.468.4.4,0,0,1,.695-.391,90.651,90.651,0,0,0,9.181,13.35,84.813,84.813,0,0,0,9.994,10.2,66.544,66.544,0,0,0,9.656,6.965,33.129,33.129,0,0,0,14.734,4.874,27.541,27.541,0,0,0,5.618-.066,18.556,18.556,0,0,0,8.086-2.777,23.5,23.5,0,0,0,3.189-2.641,47.735,47.735,0,0,0,3.577-3.916c1.254-1.521,2.538-3.227,3.817-5.07,1.317-1.9,2.635-3.953,3.917-6.107a97.415,97.415,0,0,0,5.757-10.678,105.71,105.71,0,0,0,4.38-12.507,68.058,68.058,0,0,0,1.757-7.019,36.326,36.326,0,0,0,.6-4.65,11.645,11.645,0,0,0-.154-3.364.384.384,0,0,1,.138-.429,3.057,3.057,0,0,0,.589-.743,7.344,7.344,0,0,0,.9-2.652,13.862,13.862,0,0,0-.526-4.818c-.378-1.572-.812-2.871-.895-3.116l0,0a.4.4,0,0,1,.272-.513,1.478,1.478,0,0,0,.768-.473,1.806,1.806,0,0,0,.353-.706,2.977,2.977,0,0,0,.083-1,.4.4,0,0,1,.335-.443,6.3,6.3,0,0,0,2.9-.995,1.071,1.071,0,0,0,.524-.965.754.754,0,0,0-.739-.654.4.4,0,0,1-.452-.422,4.758,4.758,0,0,0-.166-1.827,1.579,1.579,0,0,0-.568-.811,1.873,1.873,0,0,0-1.415-.219,3.75,3.75,0,0,0-.819.233.4.4,0,0,1-.56-.412c.11-.9.108-2.057-.531-2.508-.8-.566-2.283.147-2.3.154a.4.4,0,0,1-.562-.249,7.054,7.054,0,0,0-.9-2.127,1.1,1.1,0,0,0-.692-.528,1.2,1.2,0,0,0-.887.472,3.538,3.538,0,0,0-.451.6.4.4,0,0,1-.728-.076,4.384,4.384,0,0,0-1.04-1.943.9.9,0,0,0-.824-.285,1.013,1.013,0,0,0-.6.573,1.687,1.687,0,0,0-.1,1.116.4.4,0,0,1-.721.313,6.85,6.85,0,0,0-.52-.675c-.414-.469-.629-.545-.684-.557a.869.869,0,0,0-.121.375,3.058,3.058,0,0,0,1.023,2.781.4.4,0,0,1-.065.65.715.715,0,0,0-.408.7,1.4,1.4,0,0,0,.121.51.394.394,0,0,1,.041.177.4.4,0,0,1-.436.4,11.864,11.864,0,0,0-2.231,0,7.079,7.079,0,0,0-2.438.848,5.919,5.919,0,0,0-1.37,1.051,4.673,4.673,0,0,0-1,1.567c-.488,1.282-1.956,4.362-3.831,8.038-1.929,3.783-3.8,7.231-4.991,9.225-2.542,4.238-5.987,10.947-6.022,11.014a.4.4,0,0,1-.391.215,2.427,2.427,0,0,0-1.542.609,6.08,6.08,0,0,0-.818.737l-.3-.265h0l-.3.258a64.41,64.41,0,0,0-4.573-4.843.4.4,0,0,1,.551-.577c1.516,1.446,2.976,2.983,4.347,4.572a6.829,6.829,0,0,1,.607-.513,3.436,3.436,0,0,1,1.827-.778c.619-1.2,3.64-7.016,5.934-10.84,1.187-1.979,3.043-5.409,4.964-9.177,1.863-3.653,3.318-6.7,3.8-7.959a5.462,5.462,0,0,1,1.166-1.834,6.725,6.725,0,0,1,1.553-1.195,7.813,7.813,0,0,1,2.743-.947h.008a12.687,12.687,0,0,1,1.807-.041,1.956,1.956,0,0,1-.019-.2,1.5,1.5,0,0,1,.406-1.129,3.855,3.855,0,0,1-.947-3.172v0a1.746,1.746,0,0,1,.224-.661.793.793,0,0,1,.509-.372c.388-.083.825.137,1.332.673a1.908,1.908,0,0,1,1.264-1.428,1.647,1.647,0,0,1,1.579.469,4.384,4.384,0,0,1,1,1.564c.031-.036.064-.072.1-.108a1.885,1.885,0,0,1,1.562-.716,1.84,1.84,0,0,1,1.246.855,7.012,7.012,0,0,1,.888,1.946,5.067,5.067,0,0,1,.629-.183,3.484,3.484,0,0,1,1-.084,2.056,2.056,0,0,1,1.053.356,2.087,2.087,0,0,1,.783,1.181,4.622,4.622,0,0,1,.132,1.456,2.953,2.953,0,0,1,2.4.265,3.28,3.28,0,0,1,1.092,2.952,1.512,1.512,0,0,1,.591.3,1.592,1.592,0,0,1,.576,1,1.8,1.8,0,0,1-.825,1.71,6.746,6.746,0,0,1-2.913,1.094,3.74,3.74,0,0,1-.114.888,2.345,2.345,0,0,1-1.293,1.626c.178.552.5,1.607.795,2.82a14.347,14.347,0,0,1,.538,5.129h0a6.823,6.823,0,0,1-1.595,3.718,13.978,13.978,0,0,1,.134,3.3,36.705,36.705,0,0,1-.6,4.771,68.675,68.675,0,0,1-1.791,7.175,106.372,106.372,0,0,1-4.414,12.6,98.063,98.063,0,0,1-5.8,10.764c-1.292,2.17-2.62,4.24-3.947,6.154-1.291,1.861-2.589,3.584-3.857,5.123a48.519,48.519,0,0,1-3.638,3.981,24.267,24.267,0,0,1-3.3,2.732,19.353,19.353,0,0,1-8.434,2.906A26.805,26.805,0,0,1,1171.366,1079.465Z" transform="translate(-1008.797 -753.916)" fill="#f06082" opacity="0.75"/>
  <path id="Path_290" data-name="Path 290" d="M860.368,1202.191a.4.4,0,0,1-.049-.794,33.8,33.8,0,0,0,5.7-1.219.4.4,0,0,1,.234.762,34.61,34.61,0,0,1-5.833,1.248A.406.406,0,0,1,860.368,1202.191Z" transform="translate(-814.581 -907.115)" fill="#2c2f53"/>
  <path id="Path_291" data-name="Path 291" d="M909.832,1199.932a1.767,1.767,0,0,1-1.586-1.509,4.314,4.314,0,0,1,.264-2.765,5.243,5.243,0,0,1,1.021-1.533,7.587,7.587,0,0,1-2.15.077,2.631,2.631,0,0,1-2.041-1.09,2.024,2.024,0,0,1,.365-2.455,3.72,3.72,0,0,1,2.333-1.132,5.341,5.341,0,0,1,1.65.068,6.807,6.807,0,0,1,.967.264,6.506,6.506,0,0,1-.37-2.36,4.224,4.224,0,0,1,.784-2.405,1.864,1.864,0,0,1,1.855-.811,2.179,2.179,0,0,1,1.267.89,5.808,5.808,0,0,1,.889,2.038q.1.383.171.748a8.518,8.518,0,0,1,1.932-.841,4.081,4.081,0,0,1,1.867-.152A1.668,1.668,0,0,1,920.4,1189a4.578,4.578,0,0,1-.865,2.283,4.481,4.481,0,0,1-1.483,1.254,5.532,5.532,0,0,1-2.006.621.4.4,0,0,1-.06-.8,4.8,4.8,0,0,0,1.713-.542,3.575,3.575,0,0,0,1.909-2.908,1.223,1.223,0,0,0-.141-.838.868.868,0,0,0-.568-.328,5.4,5.4,0,0,0-3.319.948q-.092.055-.182.112a7.691,7.691,0,0,1-.031,2.419,3.1,3.1,0,0,1-1.145,2.036,1.287,1.287,0,0,1-1.508.044,1.87,1.87,0,0,1-.419-2.122,4.482,4.482,0,0,1,1.093-1.766,7.985,7.985,0,0,1,1.146-.989q-.085-.494-.219-1.021a5.041,5.041,0,0,0-.755-1.758,1.407,1.407,0,0,0-.79-.586,1.061,1.061,0,0,0-1.062.518,3.429,3.429,0,0,0-.618,1.949,6.086,6.086,0,0,0,.673,2.9.4.4,0,0,1-.535.534,5.55,5.55,0,0,0-3.086-.644,2.928,2.928,0,0,0-1.838.874,1.238,1.238,0,0,0-.282,1.5c.452.717,2.024,1.161,5.083.255a.4.4,0,0,1,.31.729,4.945,4.945,0,0,0-2.167,2.3,3.5,3.5,0,0,0-.227,2.241c.183.678.541.919.817.919h.005c.206,0,.633-.126,1.176-.934a11.975,11.975,0,0,0,1.438-3.7.4.4,0,0,1,.778.015,9.341,9.341,0,0,0,.665,2.073,5.512,5.512,0,0,0,.883,1.364,2.682,2.682,0,0,0,1.836,1,1.368,1.368,0,0,0,.795-.188.981.981,0,0,0,.424-.55,1.916,1.916,0,0,0-.361-1.537,7.76,7.76,0,0,0-2.5-2.216.4.4,0,0,1,.415-.681,8.413,8.413,0,0,1,2.759,2.467,3.4,3.4,0,0,1,.49,1.157,2.119,2.119,0,0,1-.038,1.043,1.769,1.769,0,0,1-.763.992,2.156,2.156,0,0,1-1.256.309,3.528,3.528,0,0,1-2.39-1.264,6.313,6.313,0,0,1-1.013-1.56,8.76,8.76,0,0,1-.339-.837,10.25,10.25,0,0,1-1.158,2.56,2.5,2.5,0,0,1-1.829,1.286Zm4.814-10.594a4.562,4.562,0,0,0-1.591,2.072c-.172.579-.122,1.07.126,1.252a.512.512,0,0,0,.591-.061,2.375,2.375,0,0,0,.809-1.526A6.48,6.48,0,0,0,914.646,1189.338Z" transform="translate(-847.694 -895.434)" fill="#f06082" opacity="0.75"/>
  <path id="Path_292" data-name="Path 292" d="M1061.275,1263.891c-.066,0-.134,0-.2-.007a4.6,4.6,0,0,1-2.322-.767,4.5,4.5,0,0,1-1.321-1.427,5.536,5.536,0,0,1-.713-1.977.4.4,0,0,1,.792-.1h0a4.81,4.81,0,0,0,.62,1.688,3.6,3.6,0,0,0,3,1.783,1.227,1.227,0,0,0,.832-.176.863.863,0,0,0,.3-.58,5.4,5.4,0,0,0-1.1-3.274q-.061-.092-.123-.18a7.717,7.717,0,0,1-2.423.08,3.1,3.1,0,0,1-2.086-1.051,1.286,1.286,0,0,1-.111-1.5,1.874,1.874,0,0,1,2.1-.517,4.482,4.482,0,0,1,1.815,1.012,8,8,0,0,1,1.039,1.1q.488-.107,1.007-.264a5.046,5.046,0,0,0,1.723-.835,1.413,1.413,0,0,0,.551-.817,1.059,1.059,0,0,0-.563-1.036,3.417,3.417,0,0,0-1.951-.53h-.028a6.137,6.137,0,0,0-2.88.807.4.4,0,0,1-.557-.51,5.546,5.546,0,0,0,.5-3.112,2.931,2.931,0,0,0-.958-1.8,1.238,1.238,0,0,0-1.506-.214c-.695.484-1.065,2.074-.021,5.088a.4.4,0,0,1-.714.343,4.943,4.943,0,0,0-2.4-2.058,3.509,3.509,0,0,0-2.25-.123c-.673.215-.9.586-.88.862.012.206.155.626.986,1.131a11.986,11.986,0,0,0,3.766,1.267.4.4,0,0,1,.021.778,9.334,9.334,0,0,0-2.04.759,5.519,5.519,0,0,0-1.322.944,2.682,2.682,0,0,0-.917,1.88,1.367,1.367,0,0,0,.224.786.982.982,0,0,0,.569.4,1.916,1.916,0,0,0,1.518-.431,7.761,7.761,0,0,0,2.1-2.6.4.4,0,1,1,.7.384,8.413,8.413,0,0,1-2.338,2.869,3.393,3.393,0,0,1-1.134.542,2.122,2.122,0,0,1-1.044.01,1.769,1.769,0,0,1-1.026-.717,2.158,2.158,0,0,1-.366-1.241,3.527,3.527,0,0,1,1.153-2.445,6.318,6.318,0,0,1,1.512-1.083,8.7,8.7,0,0,1,.821-.377,10.253,10.253,0,0,1-2.61-1.04,2.494,2.494,0,0,1-1.368-1.767,1.76,1.76,0,0,1,1.433-1.667,4.316,4.316,0,0,1,2.774.137,5.242,5.242,0,0,1,1.579.949,7.594,7.594,0,0,1-.175-2.143,2.631,2.631,0,0,1,.994-2.087,2.023,2.023,0,0,1,2.468.252,3.722,3.722,0,0,1,1.238,2.279,5.325,5.325,0,0,1,.008,1.651,6.788,6.788,0,0,1-.219.979,6.545,6.545,0,0,1,2.355-.479h.032a4.211,4.211,0,0,1,2.411.676,1.862,1.862,0,0,1,.891,1.814,2.182,2.182,0,0,1-.832,1.307,5.816,5.816,0,0,1-2,.981q-.376.115-.736.2a8.529,8.529,0,0,1,.932,1.9,4.071,4.071,0,0,1,.236,1.859A1.625,1.625,0,0,1,1061.275,1263.891Zm-3.5-7.3a.8.8,0,0,0-.688.258.51.51,0,0,0,.087.586,2.371,2.371,0,0,0,1.561.738,6.5,6.5,0,0,0,1.742-.014,4.559,4.559,0,0,0-2.141-1.494A2.35,2.35,0,0,0,1057.771,1256.587Z" transform="translate(-953.84 -942.769)" fill="#f06082" opacity="0.75"/>
  <path id="Path_293" data-name="Path 293" d="M1214.048,1192.073a2.34,2.34,0,0,1-1.42-.523,3.723,3.723,0,0,1-1.3-2.242,5.333,5.333,0,0,1-.055-1.65,6.788,6.788,0,0,1,.19-.984,6.518,6.518,0,0,1-2.331.547,4.219,4.219,0,0,1-2.457-.6,1.863,1.863,0,0,1-.945-1.789,2.183,2.183,0,0,1,.794-1.331,5.815,5.815,0,0,1,1.968-1.04q.374-.125.733-.225a8.518,8.518,0,0,1-.988-1.873,4.072,4.072,0,0,1-.29-1.852,1.663,1.663,0,0,1,1.931-1.483,4.6,4.6,0,0,1,2.341.7,4.494,4.494,0,0,1,1.36,1.388,5.538,5.538,0,0,1,.769,1.955.4.4,0,0,1-.789.119h0a4.807,4.807,0,0,0-.668-1.668,3.593,3.593,0,0,0-3.045-1.7,1.22,1.22,0,0,0-.825.2.862.862,0,0,0-.284.587,5.4,5.4,0,0,0,1.192,3.242q.064.091.13.179a7.731,7.731,0,0,1,2.421-.15,3.1,3.1,0,0,1,2.116.99,1.284,1.284,0,0,1,.154,1.5,1.374,1.374,0,0,1-.826.582,2.648,2.648,0,0,1-1.264,0,4.484,4.484,0,0,1-1.844-.959,7.99,7.99,0,0,1-1.068-1.066c-.324.081-.659.179-1,.294a5.042,5.042,0,0,0-1.7.886,1.413,1.413,0,0,0-.527.833,1.06,1.06,0,0,0,.594,1.02,3.421,3.421,0,0,0,1.989.47,6.113,6.113,0,0,0,2.845-.89.4.4,0,0,1,.572.494,5.549,5.549,0,0,0-.411,3.125,2.93,2.93,0,0,0,1.01,1.768,1.238,1.238,0,0,0,1.512.17c.681-.5,1.006-2.1-.125-5.087a.4.4,0,0,1,.7-.364,4.945,4.945,0,0,0,2.459,1.988,3.507,3.507,0,0,0,2.252.058c.667-.235.879-.613.855-.889-.017-.206-.173-.622-1.019-1.1a11.984,11.984,0,0,0-3.8-1.156.4.4,0,0,1-.044-.777,7.339,7.339,0,0,0,3.31-1.8,2.681,2.681,0,0,0,.862-1.906,1.369,1.369,0,0,0-.247-.778.981.981,0,0,0-.58-.381,1.915,1.915,0,0,0-1.5.475,7.76,7.76,0,0,0-2.022,2.662.4.4,0,0,1-.71-.363,8.416,8.416,0,0,1,2.253-2.936,3.39,3.39,0,0,1,1.117-.575,2.118,2.118,0,0,1,1.043-.04,1.769,1.769,0,0,1,1.046.686,2.157,2.157,0,0,1,.4,1.229,3.528,3.528,0,0,1-1.081,2.478,6.317,6.317,0,0,1-1.48,1.127,8.69,8.69,0,0,1-.809.4,10.265,10.265,0,0,1,2.64.963,2.5,2.5,0,0,1,1.419,1.727,1.761,1.761,0,0,1-1.385,1.709,4.316,4.316,0,0,1-2.777-.056,5.244,5.244,0,0,1-1.606-.9,7.581,7.581,0,0,1,.236,2.137,2.631,2.631,0,0,1-.933,2.116A1.754,1.754,0,0,1,1214.048,1192.073Zm-3.405-9.337a4.557,4.557,0,0,0,2.183,1.43c.592.128,1.081.042,1.245-.221a.508.508,0,0,0-.1-.582,2.371,2.371,0,0,0-1.581-.692A6.518,6.518,0,0,0,1210.642,1182.736Z" transform="translate(-1068.413 -890.129)" fill="#f06082" opacity="0.75"/>
  <path id="Path_294" data-name="Path 294" d="M921.116,1027.882l-.09,0a2.157,2.157,0,0,1-1.207-.464,3.529,3.529,0,0,1-1.241-2.4,6.317,6.317,0,0,1,.059-1.859,8.724,8.724,0,0,1,.2-.881,10.257,10.257,0,0,1-2.413,1.441,2.5,2.5,0,0,1-2.236.012,1.761,1.761,0,0,1-.453-2.152,4.314,4.314,0,0,1,1.8-2.119,5.25,5.25,0,0,1,1.714-.676,7.593,7.593,0,0,1-1.81-1.165,2.632,2.632,0,0,1-1.054-2.059,2.021,2.021,0,0,1,1.7-1.805,3.724,3.724,0,0,1,2.564.4,5.338,5.338,0,0,1,1.317,1,6.8,6.8,0,0,1,.647.771,6.521,6.521,0,0,1,1.046-2.155,4.219,4.219,0,0,1,2.017-1.527,1.863,1.863,0,0,1,1.984.395,2.18,2.18,0,0,1,.532,1.455,5.815,5.815,0,0,1-.434,2.183q-.14.375-.291.721a8.533,8.533,0,0,1,2.077.415,4.076,4.076,0,0,1,1.619.943,1.664,1.664,0,0,1-.066,2.434,4.592,4.592,0,0,1-2.019,1.375,4.494,4.494,0,0,1-1.935.181,5.541,5.541,0,0,1-2-.636.4.4,0,0,1,.4-.687,4.824,4.824,0,0,0,1.717.534,3.592,3.592,0,0,0,3.236-1.293,1.221,1.221,0,0,0,.365-.766.862.862,0,0,0-.277-.591,5.4,5.4,0,0,0-3.267-1.12l-.222-.012a7.716,7.716,0,0,1-1.405,1.967,3.122,3.122,0,0,1-2.078,1.02h-.025a1.283,1.283,0,0,1-1.26-.824,1.872,1.872,0,0,1,.869-1.984,4.478,4.478,0,0,1,1.907-.826,8,8,0,0,1,1.5-.157q.215-.458.407-.972a5.044,5.044,0,0,0,.384-1.876,1.412,1.412,0,0,0-.315-.934,1.059,1.059,0,0,0-1.167-.182,3.426,3.426,0,0,0-1.619,1.247,6.109,6.109,0,0,0-1.1,2.769.4.4,0,0,1-.743.133,5.56,5.56,0,0,0-2.17-2.291,2.933,2.933,0,0,0-2.01-.33,1.236,1.236,0,0,0-1.082,1.065c-.038.846,1,2.109,4.031,3.112a.4.4,0,0,1-.162.776,4.946,4.946,0,0,0-3.094.655,3.506,3.506,0,0,0-1.466,1.711c-.238.665-.079,1.068.15,1.224.171.116.592.257,1.5-.1a11.98,11.98,0,0,0,3.3-2.22.4.4,0,0,1,.63.456,9.338,9.338,0,0,0-.637,2.082,5.522,5.522,0,0,0-.054,1.623,2.683,2.683,0,0,0,.935,1.871,1.367,1.367,0,0,0,.76.3.98.98,0,0,0,.662-.209,1.916,1.916,0,0,0,.581-1.467,7.763,7.763,0,0,0-.79-3.249.4.4,0,1,1,.73-.322,8.414,8.414,0,0,1,.858,3.6,3.392,3.392,0,0,1-.258,1.23,2.118,2.118,0,0,1-.627.835A1.765,1.765,0,0,1,921.116,1027.882Zm3.056-10.105a4.553,4.553,0,0,0-2.483.791c-.472.378-.713.811-.613,1.1a.508.508,0,0,0,.516.285h.014a2.393,2.393,0,0,0,1.52-.793A6.51,6.51,0,0,0,924.172,1017.777Z" transform="translate(-853.933 -769.062)" fill="#f06082" opacity="0.75"/>
  <path id="Path_295" data-name="Path 295" d="M936.642,1384.94a2.618,2.618,0,0,1-.721-.1,3.722,3.722,0,0,1-2.044-1.6,5.329,5.329,0,0,1-.665-1.511,6.8,6.8,0,0,1-.19-.986,6.529,6.529,0,0,1-1.963,1.375,4.215,4.215,0,0,1-2.5.354,1.861,1.861,0,0,1-1.54-1.308,2.181,2.181,0,0,1,.242-1.531,5.818,5.818,0,0,1,1.44-1.7q.3-.257.6-.485a8.535,8.535,0,0,1-1.605-1.365,4.079,4.079,0,0,1-.957-1.61,1.665,1.665,0,0,1,1.24-2.1,4.592,4.592,0,0,1,2.433-.223,4.49,4.49,0,0,1,1.779.782,5.535,5.535,0,0,1,1.441,1.529.4.4,0,0,1-.688.4h0a4.807,4.807,0,0,0-1.241-1.3,3.589,3.589,0,0,0-3.457-.44,1.223,1.223,0,0,0-.692.493.863.863,0,0,0-.045.652,5.4,5.4,0,0,0,2.311,2.564l.179.113a7.7,7.7,0,0,1,2.181-1.038,3.1,3.1,0,0,1,2.329.129,1.288,1.288,0,0,1,.7,1.337,1.376,1.376,0,0,1-.548.847,2.63,2.63,0,0,1-1.17.467,4.466,4.466,0,0,1-2.063-.2,7.991,7.991,0,0,1-1.392-.594q-.407.294-.821.648a5.048,5.048,0,0,0-1.248,1.454,1.412,1.412,0,0,0-.179.97c.054.21.246.584.929.725a3.423,3.423,0,0,0,2.021-.3,6.12,6.12,0,0,0,2.313-1.884.4.4,0,0,1,.714.246,5.55,5.55,0,0,0,.781,3.055,2.93,2.93,0,0,0,1.595,1.265,1.238,1.238,0,0,0,1.466-.4c.445-.721.15-2.328-2.009-4.676a.4.4,0,0,1,.518-.6,4.949,4.949,0,0,0,3.022.931,3.506,3.506,0,0,0,2.112-.784c.531-.465.588-.9.463-1.143-.093-.184-.392-.513-1.356-.645a11.976,11.976,0,0,0-3.958.339.4.4,0,0,1-.329-.7,9.327,9.327,0,0,0,1.568-1.51,5.521,5.521,0,0,0,.836-1.393,2.681,2.681,0,0,0,.092-2.09,1.368,1.368,0,0,0-.519-.631.981.981,0,0,0-.681-.138,1.916,1.916,0,0,0-1.221,1,7.76,7.76,0,0,0-.888,3.223.4.4,0,1,1-.794-.073,8.412,8.412,0,0,1,1-3.564,3.4,3.4,0,0,1,.824-.949,2.119,2.119,0,0,1,.953-.425,1.769,1.769,0,0,1,1.227.248,2.159,2.159,0,0,1,.83.992,3.528,3.528,0,0,1-.083,2.7,6.313,6.313,0,0,1-.955,1.6,8.725,8.725,0,0,1-.6.673,10.247,10.247,0,0,1,2.808-.087,2.5,2.5,0,0,1,1.96,1.076,1.761,1.761,0,0,1-.65,2.1,4.314,4.314,0,0,1-2.6.98,5.248,5.248,0,0,1-1.827-.242,7.584,7.584,0,0,1,1.015,1.9,2.631,2.631,0,0,1-.08,2.311A1.871,1.871,0,0,1,936.642,1384.94Zm-5.842-7.553a4.546,4.546,0,0,0,2.557.518c.594-.1,1.013-.363,1.067-.667a.513.513,0,0,0-.315-.505,2.367,2.367,0,0,0-1.723-.052A6.492,6.492,0,0,0,930.8,1377.386Z" transform="translate(-863.546 -1031.667)" fill="#f06082" opacity="0.75"/>
  <path id="Path_296" data-name="Path 296" d="M1161.974,1362.086a2.418,2.418,0,0,1-1.127-.311,4.313,4.313,0,0,1-1.834-2.085,5.241,5.241,0,0,1-.42-1.8,7.593,7.593,0,0,1-1.419,1.622,2.635,2.635,0,0,1-2.193.741,2.024,2.024,0,0,1-1.539-1.947,3.722,3.722,0,0,1,.772-2.476,5.33,5.33,0,0,1,1.179-1.156,6.769,6.769,0,0,1,.855-.525,6.523,6.523,0,0,1-1.978-1.35,4.219,4.219,0,0,1-1.216-2.218,1.862,1.862,0,0,1,.68-1.9,2.181,2.181,0,0,1,1.517-.315,5.814,5.814,0,0,1,2.1.748q.346.191.662.388a8.537,8.537,0,0,1,.712-1.992,4.074,4.074,0,0,1,1.169-1.465,1.664,1.664,0,0,1,2.4.42,4.592,4.592,0,0,1,1.067,2.2,4.5,4.5,0,0,1-.1,1.941,5.546,5.546,0,0,1-.921,1.889.4.4,0,0,1-.621-.5h0a4.814,4.814,0,0,0,.778-1.621,3.591,3.591,0,0,0-.809-3.39,1.222,1.222,0,0,0-.7-.473.862.862,0,0,0-.625.188,5.4,5.4,0,0,0-1.583,3.069q-.024.108-.044.215a7.7,7.7,0,0,1,1.744,1.679,3.1,3.1,0,0,1,.7,2.228,1.286,1.286,0,0,1-1,1.128,1.872,1.872,0,0,1-1.836-1.148,4.482,4.482,0,0,1-.539-2.007,8,8,0,0,1,.063-1.508q-.418-.276-.894-.539a5.048,5.048,0,0,0-1.8-.653,1.411,1.411,0,0,0-.97.175,1.059,1.059,0,0,0-.35,1.127,3.426,3.426,0,0,0,1,1.784,6.112,6.112,0,0,0,2.578,1.5.4.4,0,0,1,.023.755,5.552,5.552,0,0,0-2.581,1.809,2.93,2.93,0,0,0-.621,1.939,1.239,1.239,0,0,0,.9,1.23c.833.162,2.234-.681,3.67-3.531a.4.4,0,0,1,.744.274,4.943,4.943,0,0,0,.2,3.156,3.505,3.505,0,0,0,1.479,1.7c.624.333,1.046.234,1.233.03.139-.152.341-.548.124-1.5a11.976,11.976,0,0,0-1.716-3.582.4.4,0,0,1,.543-.557,9.339,9.339,0,0,0,1.967.933,5.525,5.525,0,0,0,1.6.29h.08a2.647,2.647,0,0,0,1.907-.653,1.367,1.367,0,0,0,.407-.708.982.982,0,0,0-.111-.685,1.915,1.915,0,0,0-1.367-.788,7.761,7.761,0,0,0-3.328.309.4.4,0,1,1-.212-.769,8.411,8.411,0,0,1,3.687-.324,3.4,3.4,0,0,1,1.179.435,2.118,2.118,0,0,1,.734.741,1.769,1.769,0,0,1,.2,1.235,2.159,2.159,0,0,1-.635,1.127,3.491,3.491,0,0,1-2.465.878h-.092a6.317,6.317,0,0,1-1.831-.329,8.729,8.729,0,0,1-.843-.326,10.248,10.248,0,0,1,1.073,2.6,2.494,2.494,0,0,1-.314,2.213A1.411,1.411,0,0,1,1161.974,1362.086Zm-3.376-11.2a4.559,4.559,0,0,0,.42,2.576c.3.522.7.823,1,.766a.51.51,0,0,0,.36-.471,2.371,2.371,0,0,0-.559-1.633A6.482,6.482,0,0,0,1158.6,1350.89Z" transform="translate(-1029.727 -1013.969)" fill="#f06082" opacity="0.75"/>
  <path id="Path_297" data-name="Path 297" d="M1383.609,1071.367a1.889,1.889,0,0,1-1.583-1.155,4.313,4.313,0,0,1-.353-2.755,5.243,5.243,0,0,1,.658-1.721,7.587,7.587,0,0,1-2.079.549,2.632,2.632,0,0,1-2.23-.612,2.024,2.024,0,0,1-.185-2.474,3.722,3.722,0,0,1,2.026-1.619,5.326,5.326,0,0,1,1.624-.3,6.813,6.813,0,0,1,1,.044,6.52,6.52,0,0,1-.883-2.226,4.221,4.221,0,0,1,.235-2.519,1.863,1.863,0,0,1,1.63-1.2h.028a2.2,2.2,0,0,1,1.405.59,5.813,5.813,0,0,1,1.317,1.794q.179.352.331.692a8.528,8.528,0,0,1,1.7-1.246,4.085,4.085,0,0,1,1.787-.559h.053a1.664,1.664,0,0,1,1.7,1.686,4.56,4.56,0,0,1-.344,2.414,4.5,4.5,0,0,1-1.172,1.55,5.579,5.579,0,0,1-1.823,1.053.4.4,0,0,1-.235-.762,4.856,4.856,0,0,0,1.555-.911,3.576,3.576,0,0,0,1.226-3.255,1.215,1.215,0,0,0-.321-.783.868.868,0,0,0-.625-.194,5.4,5.4,0,0,0-3.029,1.654q-.078.074-.153.15a7.706,7.706,0,0,1,.5,2.368,3.1,3.1,0,0,1-.668,2.238,1.285,1.285,0,0,1-1.46.374,1.872,1.872,0,0,1-.878-1.98,4.475,4.475,0,0,1,.677-1.963,7.98,7.98,0,0,1,.9-1.216q-.191-.463-.438-.947a5.039,5.039,0,0,0-1.125-1.549,1.425,1.425,0,0,0-.887-.4h-.014c-.217,0-.626.1-.922.737a3.426,3.426,0,0,0-.173,2.036,6.114,6.114,0,0,0,1.3,2.685.4.4,0,0,1-.4.638,5.548,5.548,0,0,0-3.152.052,2.928,2.928,0,0,0-1.6,1.258,1.237,1.237,0,0,0,.054,1.52c.6.6,2.23.685,5.014-.873a.4.4,0,0,1,.463.643,4.943,4.943,0,0,0-1.605,2.725,3.506,3.506,0,0,0,.274,2.236c.33.625.734.779,1,.715.2-.048.589-.263.939-1.17a11.989,11.989,0,0,0,.583-3.929.4.4,0,0,1,.762-.157,9.337,9.337,0,0,0,1.106,1.875,5.518,5.518,0,0,0,1.162,1.135,2.681,2.681,0,0,0,2.012.573,1.366,1.366,0,0,0,.734-.359.979.979,0,0,0,.292-.63,1.915,1.915,0,0,0-.691-1.419,7.764,7.764,0,0,0-2.931-1.609.4.4,0,1,1,.255-.756,8.415,8.415,0,0,1,3.236,1.8,3.392,3.392,0,0,1,.733,1.021,2.117,2.117,0,0,1,.193,1.026,1.767,1.767,0,0,1-.525,1.136,2.158,2.158,0,0,1-1.157.578,3.527,3.527,0,0,1-2.61-.706,6.313,6.313,0,0,1-1.333-1.3,8.764,8.764,0,0,1-.515-.741,10.233,10.233,0,0,1-.563,2.75,2.493,2.493,0,0,1-1.5,1.658A1.34,1.34,0,0,1,1383.609,1071.367Zm2.654-11.429a4.552,4.552,0,0,0-1.095,2.369c-.04.6.117,1.073.4,1.2a.51.51,0,0,0,.561-.189,2.373,2.373,0,0,0,.452-1.666A6.5,6.5,0,0,0,1386.263,1059.938Z" transform="translate(-1194.539 -800.826)" fill="#f06082" opacity="0.75"/>
  <path id="Path_298" data-name="Path 298" d="M1291.508,1255.327a1.8,1.8,0,0,1-1.5-.972,4.58,4.58,0,0,1-.743-2.328,4.478,4.478,0,0,1,.383-1.906,5.543,5.543,0,0,1,1.188-1.736.4.4,0,0,1,.541.586h0a4.814,4.814,0,0,0-1.007,1.492,3.576,3.576,0,0,0,.314,3.469,1.228,1.228,0,0,0,.632.57.866.866,0,0,0,.648-.1,5.4,5.4,0,0,0,2.006-2.809q.038-.1.073-.2a7.714,7.714,0,0,1-1.485-1.916,3.1,3.1,0,0,1-.372-2.305,1.286,1.286,0,0,1,1.153-.972h.048c.65,0,1.247.52,1.6,1.4a4.485,4.485,0,0,1,.245,2.062,7.987,7.987,0,0,1-.28,1.487q.373.333.8.661a5.043,5.043,0,0,0,1.687.905,1.412,1.412,0,0,0,.985-.034,1.061,1.061,0,0,0,.51-1.066,3.427,3.427,0,0,0-.729-1.909,6.106,6.106,0,0,0-2.333-1.853.4.4,0,0,1,.087-.75,5.55,5.55,0,0,0,2.815-1.418,2.929,2.929,0,0,0,.893-1.829,1.237,1.237,0,0,0-.71-1.345c-.8-.28-2.306.353-4.135,2.966a.4.4,0,0,1-.7-.378,4.937,4.937,0,0,0,.26-3.148,3.509,3.509,0,0,0-1.219-1.895c-.569-.419-1-.382-1.216-.208-.16.13-.416.493-.338,1.462a11.985,11.985,0,0,0,1.182,3.792.4.4,0,0,1-.618.473,9.345,9.345,0,0,0-1.812-1.207,5.515,5.515,0,0,0-1.54-.517,2.681,2.681,0,0,0-2.06.359,1.366,1.366,0,0,0-.5.642.982.982,0,0,0,.011.694,1.917,1.917,0,0,0,1.239.977,7.762,7.762,0,0,0,3.338.174.4.4,0,1,1,.1.791,8.413,8.413,0,0,1-3.695-.211,3.389,3.389,0,0,1-1.1-.6,2.12,2.12,0,0,1-.62-.84,1.768,1.768,0,0,1-.021-1.251,2.159,2.159,0,0,1,.79-1.024,3.528,3.528,0,0,1,2.657-.5,6.32,6.32,0,0,1,1.764.59,8.735,8.735,0,0,1,.787.444,10.25,10.25,0,0,1-.688-2.723,2.493,2.493,0,0,1,.629-2.144,1.761,1.761,0,0,1,2.192.184,4.317,4.317,0,0,1,1.515,2.327,5.242,5.242,0,0,1,.157,1.833,7.587,7.587,0,0,1,1.634-1.4,2.63,2.63,0,0,1,2.275-.418,2.023,2.023,0,0,1,1.242,2.147,3.722,3.722,0,0,1-1.121,2.339,5.332,5.332,0,0,1-1.333.974,6.783,6.783,0,0,1-.922.4,6.515,6.515,0,0,1,1.761,1.62,4.219,4.219,0,0,1,.883,2.37,1.864,1.864,0,0,1-.948,1.788,2.182,2.182,0,0,1-1.547.093,5.81,5.81,0,0,1-1.966-1.041q-.313-.238-.6-.477a8.529,8.529,0,0,1-.988,1.863,4.077,4.077,0,0,1-1.366,1.282A1.8,1.8,0,0,1,1291.508,1255.327Zm1.877-8.331h-.016c-.186.007-.344.162-.423.414a2.372,2.372,0,0,0,.318,1.7,6.5,6.5,0,0,0,1.032,1.4,4.562,4.562,0,0,0-.046-2.611C1294.027,1247.348,1293.69,1247,1293.385,1247Z" transform="translate(-1126.926 -935.579)" fill="#f06082" opacity="0.75"/>
  <path id="Path_299" data-name="Path 299" d="M1091.479,749.294a.4.4,0,0,1-.194-.747c.022-.012,2.191-1.219,4.569-2.685a31.413,31.413,0,0,0,5.957-4.3.4.4,0,0,1,.6.523,31.363,31.363,0,0,1-6.143,4.462c-2.393,1.475-4.576,2.69-4.6,2.7A.4.4,0,0,1,1091.479,749.294Z" transform="translate(-984.253 -570.325)" fill="#2c2f53"/>
</svg>
